<svg width="520" height="167" viewBox="0 0 520 167" fill="none" xmlns="http://www.w3.org/2000/svg">
<g clip-path="url(#clip0_107_31)" filter="url(#filter0_d_107_31)">
<mask id="path-1-inside-1_107_31" fill="white">
<path d="M101.847 142.588C101.541 140.643 100.748 138.889 99.362 137.429C97.695 135.66 96.677 133.615 96.521 131.128C96.34 128.271 94.7075 126.389 92.1225 125.386C91.273 125.055 90.6705 124.607 90.265 123.83C89.781 122.902 89.2285 122.001 88.826 121.04C88.314 119.821 87.421 119.001 86.219 118.734C84.817 118.418 84.199 117.563 83.89 116.307C83.7745 115.846 83.6185 115.396 83.5495 114.929C83.0785 111.919 81.439 109.714 78.8665 108.192C78.0455 107.703 77.6365 107.023 77.2495 106.181C76.4625 104.474 75.7445 102.654 74.583 101.226C72.928 99.193 70.846 97.627 67.905 98.7922L67.5335 98.6889C67.178 97.9405 66.856 97.1073 66.4065 96.3489C65.3075 94.5106 64.5895 94.348 62.7475 95.4129L62.495 95.4285C62.3355 95.0964 62.164 94.7298 61.983 94.3636C61.3525 93.0986 60.787 91.7919 60.0695 90.577C59.426 89.4866 58.649 88.4974 57.1285 88.5691C56.7415 88.5877 56.3385 88.2246 55.655 87.9025C56.42 87.3693 56.816 87.0157 57.272 86.7905C58.6925 86.0792 59.7665 85.0454 60.3035 83.5421C60.547 82.8655 61 82.4898 61.6085 82.3017C62.3545 82.073 63.1225 81.8698 63.897 81.8006C65.9825 81.6125 67.3655 80.366 68.38 78.7248C69.426 77.0334 70.197 75.1795 70.522 73.1812C70.6875 72.1474 70.8685 71.2079 71.93 70.5789C72.4325 70.2814 72.745 69.4949 72.929 68.8689C73.154 68.0734 73.251 67.2117 73.2415 66.385C73.226 64.9475 73.585 63.7451 74.615 62.6737C76.501 60.729 77.0345 58.3234 76.5945 55.683C76.2385 53.5502 76.014 51.461 76.804 49.3282C77.7435 46.8037 77.144 44.558 74.993 42.8576C74.3345 42.3375 74.0905 41.7646 74.203 40.9661C74.2715 40.4991 74.3185 40.0261 74.34 39.5536C74.415 37.9344 74.5085 36.3153 74.518 34.6931C74.518 34.2482 74.3615 33.722 74.0965 33.3679C72.2265 30.878 70.7245 30.1171 68.0865 31.041C67.543 31.2321 66.9965 31.4423 66.435 31.5296C65.5265 31.6795 65.205 31.3856 65.108 30.4677C65.0395 29.791 65.03 29.1023 64.8925 28.4382C64.6175 27.0448 63.8155 26.3681 62.3885 26.2929C61.87 26.2643 61.3365 26.2899 60.8275 26.3902C59.251 26.7002 57.896 26.4373 56.616 25.3469C55.717 24.5734 54.6055 24.0347 53.541 23.4774C51.6895 22.5063 49.782 21.6421 47.943 20.6489C46.807 20.0289 45.63 19.7029 44.3525 19.6563C43.728 19.6312 43.085 19.719 42.473 19.6091C40.444 19.2429 38.8045 19.9853 37.25 21.2037C35.5175 22.56 33.7535 23.8812 31.9425 25.1312C29.5635 26.7754 26.988 27.599 24.0875 26.6691L23.4755 26.5437C22.2955 26.171 21.2305 26.478 20.1475 26.9851C18.4025 27.8057 16.9505 28.9769 15.711 30.427C14.9835 31.2823 14.2435 31.6078 13.1195 31.0912C12.1205 30.6367 11.543 30.8248 11.0685 31.6113C9.9325 33.4938 9.1985 36.6037 11.5555 38.8458C11.9365 39.206 12.3175 39.5666 12.7205 39.9012C14.3535 41.2575 14.5745 42.961 13.972 44.8871C13.71 45.7358 13.4195 46.588 13.2635 47.4583C12.6295 51.0442 12.908 54.3768 15.955 56.9359C16.5915 57.4686 17.135 58.1358 17.644 58.7994C18.5555 59.9867 19.2425 61.2487 18.8275 62.8618C18.515 64.0767 18.381 65.3357 18.075 66.548C17.8155 67.5723 17.8155 68.4957 18.4185 69.4107C18.634 69.7362 18.787 70.2027 18.7495 70.5789C18.65 71.562 18.859 72.4483 19.2805 73.3191C19.7335 74.2491 19.7705 75.1735 19.4775 76.2068C18.9965 77.8917 19.181 79.5329 20.364 80.9514C20.8695 81.5558 21.3255 82.1949 21.831 82.7993C22.5835 83.6951 22.955 84.6442 22.602 85.847C22.2025 87.2063 22.4115 88.5029 23.0235 89.8086C24.3225 92.5864 25.1655 95.5308 25.178 98.6096C25.181 100.355 25.3465 102.18 24.304 103.8C23.4235 105.162 23.926 106.537 24.825 107.576C26.074 109.023 26.658 110.724 27.282 112.453C27.5755 113.271 27.507 113.967 27.048 114.69C25.671 116.866 25.596 119.203 26.155 121.658C26.5485 123.384 27.3225 124.919 28.259 126.372C28.927 127.408 29.4295 128.48 29.617 129.689C29.7735 130.716 30.179 131.577 30.991 132.26C31.247 132.476 31.4965 132.84 31.5245 133.162C31.693 134.872 32.099 136.557 31.609 138.312C31.1095 140.093 31.5215 141.039 33.142 142.007C34.2285 142.655 34.628 143.576 34.6905 144.728C34.7375 145.618 34.678 146.517 34.722 147.406C34.8095 148.978 35.287 150.397 36.536 151.45C37.101 151.926 37.71 152.415 38.509 152.076C39.3235 151.738 39.655 151.005 39.6705 150.172C39.692 149.18 39.6455 148.177 39.58 147.184C39.4675 145.453 39.53 143.809 41.3035 142.831L41.5345 142.621C43.3955 140.77 43.589 138.828 42.2965 136.529C41.3475 134.837 40.9135 133.043 41.7625 131.117C42.0965 130.359 42.375 129.523 42.434 128.702C42.487 127.9 42.415 126.989 42.069 126.288C41.3975 124.935 40.5145 123.682 39.6805 122.41C38.3725 120.419 37.6325 118.387 39.0405 116.118L39.234 115.689C40.57 113.244 40.6885 110.8 39.178 108.38C38.716 107.64 38.6565 106.93 39.175 106.184C40.1395 104.812 39.949 103.44 39.1965 102.037C38.75 101.21 38.363 100.34 38.0505 99.4563C37.451 97.7649 37.9945 96.7372 40.002 96.0234C40.798 96.8936 41.6565 97.8803 42.562 98.8233C43.9075 100.22 45.581 100.758 47.4295 100.23C48.822 99.832 49.646 100.411 50.3235 101.439C51.0445 102.535 51.6565 103.7 52.3965 104.777C52.9865 105.632 53.6295 106.475 54.379 107.189C55.1625 107.944 55.7745 107.844 56.558 107.085C58.013 105.664 58.325 105.638 59.7145 107.089C60.4765 107.894 61.2975 108.466 62.4465 108.33C63.305 108.223 63.8515 108.583 64.1915 109.338C64.919 110.96 65.6995 112.561 66.3675 114.205C67.2045 116.272 68.5875 116.923 70.5825 116.078C70.8695 115.956 71.151 115.815 71.444 115.696C72.571 115.239 72.6865 115.216 73.333 116.312C74.129 117.662 74.8565 119.059 75.5245 120.481C76.4205 122.376 77.894 123.619 79.883 123.97C81.094 124.186 81.731 124.756 82.218 125.742C82.471 126.26 82.777 126.755 83.03 127.271C84.204 129.661 85.534 131.891 88.278 132.778L88.8025 133.116C90.1545 134.055 91.4315 135.029 91.522 136.909C91.6155 138.776 92.377 140.46 93.0705 142.164C93.545 143.326 94.235 144.263 95.353 144.864C96.2615 145.356 96.8795 146.089 97.2415 147.079C97.588 148.012 98.0065 148.923 98.4465 149.813C99.0615 151.047 100.179 151.814 100.963 151.607C101.778 151.391 102.208 150.492 102.168 148.948C102.152 148.272 101.806 147.52 102.002 146.934C102.506 145.434 102.072 144.016 101.847 142.588ZM54.2145 75.7915C53.89 75.9981 53.4775 76.0829 53.0935 76.1677C52.241 76.3678 51.3515 76.4526 50.524 76.7285C49.5875 77.042 48.66 77.4362 47.7985 77.9248C47.1365 78.304 46.4965 78.8081 46.019 79.3934C45.332 80.2421 44.5235 80.831 43.418 81.2759C43.043 80.9599 42.6845 80.5867 42.263 80.3018C40.4145 79.0519 39.297 78.9616 37.8205 80.0731C37.4175 80.3771 36.946 80.5807 36.15 81.0317C36.3 80.042 36.3405 79.397 36.506 78.786C36.659 78.2348 36.971 77.7306 37.174 77.1919C37.7985 75.5382 37.608 74.846 36.103 73.8874C35.485 73.4962 35.2505 73.0447 35.2665 72.35C35.2915 71.3007 35.276 70.2483 35.2695 69.196C35.2635 67.6455 34.648 66.4869 33.206 65.7881C32.238 65.3181 32.154 64.9801 32.3915 63.9026C32.541 63.245 32.666 62.5684 32.741 61.8952C33.0065 59.6275 31.8765 58.049 30.2155 56.7052C29.9315 56.4765 29.641 56.0411 29.6505 55.706C29.688 54.0994 29.154 52.4928 29.782 50.8797C30.1785 49.8554 29.532 49.0348 28.839 48.3737C27.7525 47.3464 27.6245 46.0999 27.893 44.7532C28.1145 43.6195 28.633 43.278 29.7665 43.4345C30.0755 43.4816 30.4005 43.4876 30.6965 43.5754C33.2695 44.3554 35.2955 43.3753 37.0875 41.6086C37.384 41.3142 37.696 41.0288 37.9865 40.7283C38.97 39.7071 40.1845 39.3469 41.5585 39.4914C42.445 39.5822 43.319 39.7949 44.203 39.842C45.3455 39.9047 46.4885 39.8611 47.762 39.8611C50.2595 44.4116 51.3305 44.9568 55.177 43.5533C56.101 44.4898 57.1405 45.339 56.463 46.9923C56.154 47.7537 56.435 48.5648 56.975 49.2003C57.718 50.0806 58.461 50.9639 59.276 51.775C59.8285 52.3293 60.503 52.7617 61.137 53.2597C60.731 53.9329 60.5375 54.29 60.3095 54.6191C59.3825 55.9628 59.198 56.9023 60.2065 58.061C61.599 59.6551 60.8685 61.3339 60.787 63.0098L60.5905 63.4231C59.598 64.5447 58.586 65.6562 57.5965 66.7808C56.6165 67.8928 56.323 69.2833 56.098 70.6832C55.967 71.5098 55.9205 72.353 55.789 73.1827C55.616 74.2566 55.1635 75.1961 54.2145 75.7915Z"/>
</mask>
<path d="M101.847 142.588C101.541 140.643 100.748 138.889 99.362 137.429C97.695 135.66 96.677 133.615 96.521 131.128C96.34 128.271 94.7075 126.389 92.1225 125.386C91.273 125.055 90.6705 124.607 90.265 123.83C89.781 122.902 89.2285 122.001 88.826 121.04C88.314 119.821 87.421 119.001 86.219 118.734C84.817 118.418 84.199 117.563 83.89 116.307C83.7745 115.846 83.6185 115.396 83.5495 114.929C83.0785 111.919 81.439 109.714 78.8665 108.192C78.0455 107.703 77.6365 107.023 77.2495 106.181C76.4625 104.474 75.7445 102.654 74.583 101.226C72.928 99.193 70.846 97.627 67.905 98.7922L67.5335 98.6889C67.178 97.9405 66.856 97.1073 66.4065 96.3489C65.3075 94.5106 64.5895 94.348 62.7475 95.4129L62.495 95.4285C62.3355 95.0964 62.164 94.7298 61.983 94.3636C61.3525 93.0986 60.787 91.7919 60.0695 90.577C59.426 89.4866 58.649 88.4974 57.1285 88.5691C56.7415 88.5877 56.3385 88.2246 55.655 87.9025C56.42 87.3693 56.816 87.0157 57.272 86.7905C58.6925 86.0792 59.7665 85.0454 60.3035 83.5421C60.547 82.8655 61 82.4898 61.6085 82.3017C62.3545 82.073 63.1225 81.8698 63.897 81.8006C65.9825 81.6125 67.3655 80.366 68.38 78.7248C69.426 77.0334 70.197 75.1795 70.522 73.1812C70.6875 72.1474 70.8685 71.2079 71.93 70.5789C72.4325 70.2814 72.745 69.4949 72.929 68.8689C73.154 68.0734 73.251 67.2117 73.2415 66.385C73.226 64.9475 73.585 63.7451 74.615 62.6737C76.501 60.729 77.0345 58.3234 76.5945 55.683C76.2385 53.5502 76.014 51.461 76.804 49.3282C77.7435 46.8037 77.144 44.558 74.993 42.8576C74.3345 42.3375 74.0905 41.7646 74.203 40.9661C74.2715 40.4991 74.3185 40.0261 74.34 39.5536C74.415 37.9344 74.5085 36.3153 74.518 34.6931C74.518 34.2482 74.3615 33.722 74.0965 33.3679C72.2265 30.878 70.7245 30.1171 68.0865 31.041C67.543 31.2321 66.9965 31.4423 66.435 31.5296C65.5265 31.6795 65.205 31.3856 65.108 30.4677C65.0395 29.791 65.03 29.1023 64.8925 28.4382C64.6175 27.0448 63.8155 26.3681 62.3885 26.2929C61.87 26.2643 61.3365 26.2899 60.8275 26.3902C59.251 26.7002 57.896 26.4373 56.616 25.3469C55.717 24.5734 54.6055 24.0347 53.541 23.4774C51.6895 22.5063 49.782 21.6421 47.943 20.6489C46.807 20.0289 45.63 19.7029 44.3525 19.6563C43.728 19.6312 43.085 19.719 42.473 19.6091C40.444 19.2429 38.8045 19.9853 37.25 21.2037C35.5175 22.56 33.7535 23.8812 31.9425 25.1312C29.5635 26.7754 26.988 27.599 24.0875 26.6691L23.4755 26.5437C22.2955 26.171 21.2305 26.478 20.1475 26.9851C18.4025 27.8057 16.9505 28.9769 15.711 30.427C14.9835 31.2823 14.2435 31.6078 13.1195 31.0912C12.1205 30.6367 11.543 30.8248 11.0685 31.6113C9.9325 33.4938 9.1985 36.6037 11.5555 38.8458C11.9365 39.206 12.3175 39.5666 12.7205 39.9012C14.3535 41.2575 14.5745 42.961 13.972 44.8871C13.71 45.7358 13.4195 46.588 13.2635 47.4583C12.6295 51.0442 12.908 54.3768 15.955 56.9359C16.5915 57.4686 17.135 58.1358 17.644 58.7994C18.5555 59.9867 19.2425 61.2487 18.8275 62.8618C18.515 64.0767 18.381 65.3357 18.075 66.548C17.8155 67.5723 17.8155 68.4957 18.4185 69.4107C18.634 69.7362 18.787 70.2027 18.7495 70.5789C18.65 71.562 18.859 72.4483 19.2805 73.3191C19.7335 74.2491 19.7705 75.1735 19.4775 76.2068C18.9965 77.8917 19.181 79.5329 20.364 80.9514C20.8695 81.5558 21.3255 82.1949 21.831 82.7993C22.5835 83.6951 22.955 84.6442 22.602 85.847C22.2025 87.2063 22.4115 88.5029 23.0235 89.8086C24.3225 92.5864 25.1655 95.5308 25.178 98.6096C25.181 100.355 25.3465 102.18 24.304 103.8C23.4235 105.162 23.926 106.537 24.825 107.576C26.074 109.023 26.658 110.724 27.282 112.453C27.5755 113.271 27.507 113.967 27.048 114.69C25.671 116.866 25.596 119.203 26.155 121.658C26.5485 123.384 27.3225 124.919 28.259 126.372C28.927 127.408 29.4295 128.48 29.617 129.689C29.7735 130.716 30.179 131.577 30.991 132.26C31.247 132.476 31.4965 132.84 31.5245 133.162C31.693 134.872 32.099 136.557 31.609 138.312C31.1095 140.093 31.5215 141.039 33.142 142.007C34.2285 142.655 34.628 143.576 34.6905 144.728C34.7375 145.618 34.678 146.517 34.722 147.406C34.8095 148.978 35.287 150.397 36.536 151.45C37.101 151.926 37.71 152.415 38.509 152.076C39.3235 151.738 39.655 151.005 39.6705 150.172C39.692 149.18 39.6455 148.177 39.58 147.184C39.4675 145.453 39.53 143.809 41.3035 142.831L41.5345 142.621C43.3955 140.77 43.589 138.828 42.2965 136.529C41.3475 134.837 40.9135 133.043 41.7625 131.117C42.0965 130.359 42.375 129.523 42.434 128.702C42.487 127.9 42.415 126.989 42.069 126.288C41.3975 124.935 40.5145 123.682 39.6805 122.41C38.3725 120.419 37.6325 118.387 39.0405 116.118L39.234 115.689C40.57 113.244 40.6885 110.8 39.178 108.38C38.716 107.64 38.6565 106.93 39.175 106.184C40.1395 104.812 39.949 103.44 39.1965 102.037C38.75 101.21 38.363 100.34 38.0505 99.4563C37.451 97.7649 37.9945 96.7372 40.002 96.0234C40.798 96.8936 41.6565 97.8803 42.562 98.8233C43.9075 100.22 45.581 100.758 47.4295 100.23C48.822 99.832 49.646 100.411 50.3235 101.439C51.0445 102.535 51.6565 103.7 52.3965 104.777C52.9865 105.632 53.6295 106.475 54.379 107.189C55.1625 107.944 55.7745 107.844 56.558 107.085C58.013 105.664 58.325 105.638 59.7145 107.089C60.4765 107.894 61.2975 108.466 62.4465 108.33C63.305 108.223 63.8515 108.583 64.1915 109.338C64.919 110.96 65.6995 112.561 66.3675 114.205C67.2045 116.272 68.5875 116.923 70.5825 116.078C70.8695 115.956 71.151 115.815 71.444 115.696C72.571 115.239 72.6865 115.216 73.333 116.312C74.129 117.662 74.8565 119.059 75.5245 120.481C76.4205 122.376 77.894 123.619 79.883 123.97C81.094 124.186 81.731 124.756 82.218 125.742C82.471 126.26 82.777 126.755 83.03 127.271C84.204 129.661 85.534 131.891 88.278 132.778L88.8025 133.116C90.1545 134.055 91.4315 135.029 91.522 136.909C91.6155 138.776 92.377 140.46 93.0705 142.164C93.545 143.326 94.235 144.263 95.353 144.864C96.2615 145.356 96.8795 146.089 97.2415 147.079C97.588 148.012 98.0065 148.923 98.4465 149.813C99.0615 151.047 100.179 151.814 100.963 151.607C101.778 151.391 102.208 150.492 102.168 148.948C102.152 148.272 101.806 147.52 102.002 146.934C102.506 145.434 102.072 144.016 101.847 142.588ZM54.2145 75.7915C53.89 75.9981 53.4775 76.0829 53.0935 76.1677C52.241 76.3678 51.3515 76.4526 50.524 76.7285C49.5875 77.042 48.66 77.4362 47.7985 77.9248C47.1365 78.304 46.4965 78.8081 46.019 79.3934C45.332 80.2421 44.5235 80.831 43.418 81.2759C43.043 80.9599 42.6845 80.5867 42.263 80.3018C40.4145 79.0519 39.297 78.9616 37.8205 80.0731C37.4175 80.3771 36.946 80.5807 36.15 81.0317C36.3 80.042 36.3405 79.397 36.506 78.786C36.659 78.2348 36.971 77.7306 37.174 77.1919C37.7985 75.5382 37.608 74.846 36.103 73.8874C35.485 73.4962 35.2505 73.0447 35.2665 72.35C35.2915 71.3007 35.276 70.2483 35.2695 69.196C35.2635 67.6455 34.648 66.4869 33.206 65.7881C32.238 65.3181 32.154 64.9801 32.3915 63.9026C32.541 63.245 32.666 62.5684 32.741 61.8952C33.0065 59.6275 31.8765 58.049 30.2155 56.7052C29.9315 56.4765 29.641 56.0411 29.6505 55.706C29.688 54.0994 29.154 52.4928 29.782 50.8797C30.1785 49.8554 29.532 49.0348 28.839 48.3737C27.7525 47.3464 27.6245 46.0999 27.893 44.7532C28.1145 43.6195 28.633 43.278 29.7665 43.4345C30.0755 43.4816 30.4005 43.4876 30.6965 43.5754C33.2695 44.3554 35.2955 43.3753 37.0875 41.6086C37.384 41.3142 37.696 41.0288 37.9865 40.7283C38.97 39.7071 40.1845 39.3469 41.5585 39.4914C42.445 39.5822 43.319 39.7949 44.203 39.842C45.3455 39.9047 46.4885 39.8611 47.762 39.8611C50.2595 44.4116 51.3305 44.9568 55.177 43.5533C56.101 44.4898 57.1405 45.339 56.463 46.9923C56.154 47.7537 56.435 48.5648 56.975 49.2003C57.718 50.0806 58.461 50.9639 59.276 51.775C59.8285 52.3293 60.503 52.7617 61.137 53.2597C60.731 53.9329 60.5375 54.29 60.3095 54.6191C59.3825 55.9628 59.198 56.9023 60.2065 58.061C61.599 59.6551 60.8685 61.3339 60.787 63.0098L60.5905 63.4231C59.598 64.5447 58.586 65.6562 57.5965 66.7808C56.6165 67.8928 56.323 69.2833 56.098 70.6832C55.967 71.5098 55.9205 72.353 55.789 73.1827C55.616 74.2566 55.1635 75.1961 54.2145 75.7915Z" fill="#1ABED6" stroke="black" stroke-width="2" mask="url(#path-1-inside-1_107_31)"/>
<path d="M508.75 75.192L508.749 75.1918C508.216 74.9323 507.689 75.0313 507.044 75.3108C506.617 75.4958 506.191 75.6774 505.767 75.8582C504.416 76.4342 503.081 77.0032 501.785 77.6569L501.784 77.6575C500.664 78.2186 499.569 78.8047 498.801 79.6155C497.433 81.0639 495.774 82.0413 494.153 82.9468C493.995 83.035 493.837 83.1225 493.681 83.2097C492.208 84.0275 490.792 84.8142 489.566 85.8841L489.517 85.9275L489.457 85.9566L489.176 86.094L489.16 86.1018L489.144 86.1084C488.408 86.4062 487.668 86.7204 486.923 87.0366C485.16 87.7852 483.371 88.5449 481.539 89.1251L481.539 89.1252C481.227 89.2237 480.92 89.316 480.617 89.4067C478.658 89.9946 476.925 90.5143 475.716 92.2367L474.902 93.3965L474.808 91.9826C474.767 91.3711 474.819 90.8389 475.006 90.3347L475.007 90.3337C475.405 89.2672 475.234 88.2889 474.63 87.3181L474.629 87.3171C474.393 86.937 474.141 86.5651 473.883 86.183L473.862 86.1518C473.598 85.7622 473.327 85.3619 473.074 84.9485C473.062 84.9296 473.05 84.9102 473.038 84.8902C472.93 84.7172 472.799 84.5056 472.695 84.2889C472.579 84.0487 472.47 83.7495 472.475 83.4285L472.475 83.424C472.496 82.5696 472.129 81.9377 471.565 81.1623L471.562 81.1585C471.158 80.5909 470.802 79.7982 470.78 79.0446M508.75 75.192L475.054 87.0538C474.813 86.665 474.556 86.2857 474.299 85.9063C474.026 85.5036 473.753 85.1008 473.5 84.6863C473.487 84.6668 473.475 84.6471 473.463 84.6272C473.233 84.2555 472.968 83.8292 472.975 83.4363C473 82.406 472.544 81.6577 471.97 80.8681C471.601 80.3515 471.298 79.6533 471.28 79.0298C471.222 77.1121 471.204 75.1942 471.186 73.2771C471.174 71.9473 471.161 70.618 471.136 69.2893C471.104 67.6546 470.402 66.3855 468.973 65.5153C468.557 65.2615 468.092 64.8231 467.97 64.3847C467.648 63.2085 467.184 62.0772 466.72 60.9459C465.932 59.0253 465.144 57.1051 465.054 54.9667M508.75 75.192C509.245 75.4322 509.438 75.6971 509.485 75.9006C509.53 76.0906 509.482 76.385 509.115 76.7802L509.114 76.7818C507.772 78.2407 506.401 79.6748 504.967 81.0288L504.967 81.0292C502.508 83.3567 499.865 85.4125 496.881 86.9954L496.88 86.9961C495.823 87.5607 494.875 88.3421 494.009 89.1035M508.75 75.192L505.311 81.3923M470.78 79.0446L471.27 79.0301L470.78 79.0447C470.78 79.0447 470.78 79.0447 470.78 79.0446ZM470.78 79.0446C470.722 77.1252 470.704 75.1949 470.686 73.2713C470.673 71.942 470.661 70.6159 470.636 69.2989C470.607 67.8314 469.993 66.7217 468.713 65.9424L468.712 65.942C468.469 65.7937 468.213 65.5928 467.996 65.3608C467.784 65.1339 467.579 64.8453 467.488 64.5182L467.488 64.5166C467.175 63.3725 466.728 62.2822 466.267 61.1597C466.103 60.7595 465.937 60.3552 465.775 59.9428C465.168 58.3972 464.63 56.7738 464.555 54.9904M464.555 54.9904C464.555 54.9913 464.555 54.9921 464.555 54.993L465.054 54.9667M464.555 54.9904C464.539 54.7048 464.453 54.3912 464.334 54.0761M464.555 54.9904C464.555 54.9895 464.554 54.9886 464.554 54.9878L465.054 54.9667M465.054 54.9667C465.035 54.6065 464.929 54.2369 464.801 53.8988M471.006 106.874C472.62 104.917 474.69 103.708 477.135 102.987C481.056 101.831 483.843 99.2447 485.607 95.577C486.07 94.6189 486.772 93.9704 487.621 93.4507M471.006 106.874L470.621 106.556C470.621 106.556 470.62 106.556 470.62 106.556M471.006 106.874L470.62 106.556M471.006 106.874C470.444 107.554 469.938 108.306 469.541 109.092C468.91 110.344 468.061 111.362 466.9 112.139C465.823 112.862 464.753 113.591 463.682 114.32C462.115 115.388 460.548 116.455 458.964 117.501M470.62 106.556C472.31 104.507 474.472 103.251 476.993 102.507L477.132 102.979L476.993 102.507C480.764 101.396 483.447 98.915 485.156 95.3603L485.157 95.3596C485.672 94.293 486.452 93.5797 487.359 93.0252M470.62 106.556C470.037 107.261 469.51 108.043 469.095 108.866L469.094 108.867C468.498 110.052 467.703 111 466.622 111.724L466.621 111.724C465.538 112.451 464.465 113.182 463.395 113.911C461.831 114.976 460.272 116.038 458.689 117.084M487.359 93.0252C487.358 93.0255 487.357 93.0258 487.357 93.0262L487.621 93.4507M487.359 93.0252C487.359 93.0248 487.36 93.0245 487.36 93.0242L487.621 93.4507M487.359 93.0252C487.967 92.6466 488.626 92.3449 489.281 92.0992M487.621 93.4507C488.195 93.0936 488.823 92.8051 489.457 92.5674M489.457 92.5674L489.28 92.0996C489.28 92.0995 489.281 92.0994 489.281 92.0992M489.457 92.5674C491.299 91.8717 492.866 90.7727 494.339 89.4791M489.457 92.5674L489.281 92.0992M489.281 92.0992C491.046 91.4323 492.562 90.3742 494.009 89.1035M494.339 89.4791L494.009 89.1035M494.339 89.4791C495.202 88.7211 496.113 87.9728 497.116 87.4371C500.15 85.8274 502.829 83.7413 505.311 81.3923M494.339 89.4791L494.009 89.1034C494.009 89.1034 494.009 89.1034 494.009 89.1035M505.311 81.3923C506.757 80.027 508.136 78.5834 509.482 77.1202L505.311 81.3923ZM458.689 117.084C458.689 117.083 458.689 117.083 458.689 117.083L458.964 117.501M458.689 117.084C456.673 118.41 455.297 120.169 454.689 122.571L454.689 122.573C454.53 123.213 454.154 123.861 453.713 124.443L453.713 124.444C453.27 125.032 452.795 125.556 452.304 126.098C451.997 126.437 451.684 126.783 451.368 127.156M458.689 117.084L458.964 117.501M458.964 117.501C457.041 118.766 455.748 120.426 455.174 122.693C454.993 123.427 454.572 124.137 454.112 124.745C453.66 125.345 453.154 125.904 452.649 126.462C452.345 126.798 452.041 127.135 451.749 127.48M451.368 127.156L451.749 127.48M451.368 127.156C449.636 129.194 447.912 131.317 446.873 133.945L447.337 134.129L446.873 133.944C446.346 135.272 445.43 136.353 444.167 137.118M451.368 127.156C451.368 127.156 451.368 127.156 451.367 127.156L451.749 127.48M451.749 127.48C450.016 129.519 448.343 131.586 447.337 134.129C446.769 135.56 445.779 136.725 444.425 137.546M444.167 137.118C444.167 137.118 444.168 137.117 444.168 137.117L444.425 137.546M444.167 137.118C443.717 137.388 443.323 137.752 442.986 138.08L442.985 138.082C442.442 138.615 441.894 139.147 441.346 139.68C439.789 141.195 438.223 142.717 436.725 144.299M444.167 137.118C444.167 137.118 444.166 137.118 444.166 137.118L444.425 137.546M444.425 137.546C444.028 137.784 443.669 138.113 443.335 138.438C442.788 138.976 442.238 139.51 441.688 140.045C440.133 141.557 438.578 143.069 437.088 144.643C435.571 146.24 433.751 147.099 431.659 147.575M436.725 144.299C435.292 145.807 433.57 146.627 431.549 147.087M436.725 144.299L437.087 144.642L436.725 144.298C436.725 144.299 436.725 144.299 436.725 144.299ZM431.659 147.575L431.549 147.087M431.659 147.575L431.548 147.087C431.548 147.087 431.548 147.087 431.549 147.087M431.659 147.575C429.723 148.01 427.785 148.458 425.911 149.084M431.549 147.087L422.94 150.296C421.475 151.481 420.037 152.707 418.605 153.928C417.93 154.504 417.256 155.078 416.58 155.647M425.911 149.084L425.753 148.61C425.753 148.61 425.753 148.61 425.752 148.61L425.911 149.084ZM425.911 149.084C424.953 149.403 424.054 150.036 423.254 150.684C421.794 151.866 420.365 153.084 418.936 154.303C418.254 154.884 417.572 155.466 416.886 156.043M416.886 156.043L416.598 155.635L416.58 155.647M416.886 156.043L416.564 155.661C416.569 155.656 416.575 155.652 416.58 155.647M416.886 156.043L416.246 156.494M416.58 155.647L415.975 156.074M415.975 156.074C415.98 156.071 415.986 156.067 415.992 156.064L416.246 156.494M415.975 156.074C415.459 156.376 415.025 156.501 414.66 156.501C414.302 156.501 413.969 156.381 413.646 156.113M415.975 156.074L415.958 156.086L416.246 156.494M416.246 156.494C415.1 157.171 414.135 157.168 413.326 156.497M413.646 156.113L413.326 156.497M413.646 156.113C413.272 155.802 413.15 155.485 413.137 155.165C413.123 154.815 413.24 154.419 413.437 153.977L413.438 153.975C413.465 153.913 413.492 153.852 413.519 153.791C413.9 152.923 414.253 152.119 414.81 151.583L414.81 151.583C417.797 148.707 420.743 145.872 424.321 143.864L424.077 143.428M413.646 156.113C413.646 156.113 413.646 156.113 413.645 156.112L413.326 156.497M413.326 156.497C412.366 155.699 412.565 154.703 412.98 153.773C413.011 153.705 413.041 153.636 413.071 153.567C413.44 152.725 413.831 151.831 414.463 151.223C417.442 148.354 420.433 145.473 424.077 143.428M424.077 143.428C424.523 143.177 424.997 142.976 425.47 142.775C425.861 142.609 426.252 142.444 426.627 142.25M424.077 143.428L424.321 143.864C424.702 143.65 425.109 143.472 425.542 143.288C425.583 143.271 425.625 143.253 425.667 143.235C426.055 143.07 426.464 142.897 426.857 142.694L426.858 142.694C428.502 141.839 429.665 140.522 430.523 138.94M426.627 142.25L460.496 97.794L460.973 97.9413C460.865 98.2935 460.753 98.6386 460.643 98.9786C459.978 101.028 459.373 102.894 459.921 105.013M426.627 142.25C428.163 141.451 429.262 140.217 430.083 138.701M426.627 142.25L434.092 134.896M430.523 138.94C431.417 137.294 432.526 135.999 434.264 135.366M430.523 138.94C430.523 138.94 430.523 138.94 430.523 138.94L430.083 138.701M430.523 138.94L430.083 138.701M434.264 135.366C434.544 135.264 434.769 135.054 434.929 134.857C435.094 134.653 435.23 134.414 435.312 134.185M434.264 135.366L434.092 134.896M434.264 135.366C434.263 135.366 434.263 135.366 434.263 135.366L434.092 134.896M435.312 134.185C435.643 133.272 436.254 132.598 437.039 131.928M435.312 134.185C435.312 134.185 435.312 134.185 435.312 134.185L434.843 134.017L435.312 134.186C435.312 134.186 435.312 134.186 435.312 134.185ZM437.039 131.928C437.039 131.928 437.039 131.928 437.039 131.928L436.715 131.548L437.039 131.928ZM437.039 131.928C438.831 130.403 440.623 128.86 442.371 127.27C442.371 127.269 442.371 127.269 442.372 127.269L442.035 126.899C443.468 125.6 443.493 125.055 442.409 123.423M442.409 123.423L442.826 123.147C442.826 123.147 442.826 123.147 442.826 123.147C442.384 122.479 442.224 122.006 442.247 121.584C442.27 121.162 442.483 120.687 443.028 120.032C444.691 118.034 446.555 116.313 448.846 115.123C449.232 114.924 449.605 114.708 449.966 114.484L450.067 114.421L450.128 114.321L450.309 114.026L450.48 113.748L450.295 113.48L450.054 113.132L450.044 113.117L450.032 113.103C449.498 112.442 449.36 111.995 449.407 111.693C449.449 111.416 449.682 111.075 450.415 110.711C451.812 110.02 453.266 109.463 454.745 108.897C455.169 108.735 455.595 108.572 456.022 108.405C456.365 108.271 456.722 108.164 457.099 108.055C457.146 108.041 457.194 108.028 457.241 108.014C457.57 107.919 457.913 107.82 458.249 107.703M442.409 123.423C441.479 122.017 441.498 121.09 442.643 119.712C444.333 117.682 446.247 115.91 448.616 114.679C448.988 114.488 449.35 114.278 449.703 114.059M442.409 123.423L449.703 114.059M458.249 107.703C458.249 107.703 458.249 107.704 458.248 107.704L458.085 107.231L458.249 107.703ZM458.249 107.703C458.856 107.494 459.405 107.227 459.731 106.768C460.08 106.275 460.096 105.68 459.921 105.013M459.921 105.013C459.921 105.013 459.921 105.013 459.921 105.013L459.439 105.139L459.922 105.014C459.922 105.013 459.921 105.013 459.921 105.013ZM464.334 54.0761L457.773 54.131C457.751 53.5693 457.729 53.0092 457.708 52.4505C457.623 50.262 457.54 48.0948 457.47 45.9314C457.463 45.7588 457.454 45.5855 457.446 45.412C457.408 44.6913 457.371 43.9678 457.502 43.2785M464.334 54.0761C464.333 54.076 464.333 54.0759 464.333 54.0758L464.801 53.8988M464.334 54.0761C464.334 54.0766 464.334 54.077 464.334 54.0774L464.801 53.8988M464.801 53.8988C464.559 53.2652 464.319 52.6308 464.078 51.9965C463.298 49.934 462.517 47.8722 461.661 45.8436C461.199 44.7472 460.481 43.742 459.778 42.7679M459.778 42.7679C459.509 42.4042 458.847 41.9693 458.541 42.0787C458.092 42.2321 457.592 42.8085 457.502 43.2785M459.778 42.7679L459.372 43.0605C459.373 43.0613 459.373 43.0621 459.374 43.063C459.374 43.0636 459.375 43.0642 459.375 43.0648L459.778 42.7679ZM457.502 43.2785L457.992 43.373C457.993 43.3726 457.993 43.3723 457.993 43.3719C457.993 43.3718 457.993 43.3717 457.993 43.3715L457.502 43.2785ZM449.703 114.059L449.884 113.764L449.703 114.059ZM434.092 134.896C432.194 135.588 431.007 137 430.083 138.701M456.251 56.9828L455.753 57.0187L456.251 56.9835C456.251 56.9832 456.251 56.983 456.251 56.9828ZM458.65 42.5615C458.653 42.5618 458.66 42.5627 458.669 42.5649C458.681 42.5598 458.692 42.5555 458.703 42.5518L458.703 42.5518L458.709 42.5496C458.707 42.5504 458.705 42.5511 458.703 42.5517C458.675 42.5607 458.657 42.5616 458.65 42.5615ZM456.799 62.4211C456.799 62.4211 456.799 62.421 456.799 62.421L456.303 62.4775L456.799 62.4211ZM456.705 71.726L457.205 71.7345C457.205 71.7344 457.205 71.7342 457.205 71.7341L456.705 71.726ZM459.933 83.7167L459.434 83.7403L459.934 83.7182C459.934 83.7181 459.934 83.7181 459.934 83.718C459.933 83.7176 459.933 83.7171 459.933 83.7167ZM460.003 86.7414C460.003 86.7411 460.003 86.7407 460.003 86.7404C460.003 86.7404 460.003 86.7403 460.003 86.7403L459.503 86.7258L460.003 86.7414ZM460.885 88.6578L460.583 89.0562L460.886 88.6586C460.886 88.6584 460.886 88.6581 460.885 88.6578Z" fill="#1ABED6" stroke="black"/>
<path d="M93.5619 75.1008L93.562 75.1005C94.0626 73.7805 94.2711 72.5105 93.7081 71.3569C92.9373 69.7779 92.755 68.1929 93.052 66.5204V65.953C93.0141 65.4274 92.8761 65.115 92.6871 64.9204C92.4965 64.7242 92.1844 64.5762 91.6495 64.526C90.6844 64.4423 89.8093 64.6584 88.9955 65.2035C88.6585 65.4321 88.1197 65.7184 87.5836 65.6858L87.5836 65.6858C86.639 65.6282 86.1802 65.753 85.9613 65.9507C85.7708 66.1229 85.6244 66.4875 85.7403 67.3735L85.7404 67.3746C86.0072 69.4503 85.7587 71.3992 85.0381 73.3202L85.038 73.3204C84.9987 73.4251 84.9706 73.544 84.9435 73.6896C84.9354 73.7335 84.9264 73.7854 84.9168 73.8411C84.8986 73.9463 84.8781 74.0651 84.8562 74.1688L84.3674 74.0656L84.8563 74.1683C84.7458 74.6942 84.7432 75.1134 84.8571 75.4389C84.9628 75.7413 85.1894 76.0213 85.6753 76.2414L85.6754 76.2414C86.1598 76.461 86.4881 76.8047 86.6615 77.2283C86.8298 77.6397 86.8355 78.0847 86.7604 78.4966L86.7601 78.4979C86.6408 79.1418 86.3908 79.7629 86.1661 80.321C86.1402 80.3855 86.1146 80.4491 86.0895 80.5118C85.9205 80.9383 85.7352 81.3608 85.5543 81.7732C85.5037 81.8884 85.4535 82.0029 85.4041 82.1164C85.1754 82.6419 84.9604 83.1552 84.7852 83.6767C84.5051 84.5166 84.4234 85.2786 84.5704 85.9522C84.715 86.615 85.0904 87.2368 85.8092 87.7923L85.8095 87.7925C86.5529 88.3678 86.9628 89.1534 86.9205 90.114M93.5619 75.1008L86.134 94.7809L86.6292 94.8498C86.6293 94.8495 86.6293 94.8492 86.6294 94.8489C86.7977 93.6375 86.8395 92.4019 86.8803 91.1971C86.8926 90.8327 86.9049 90.4712 86.9205 90.114M93.5619 75.1008C92.8441 76.9972 92.4942 78.947 92.5557 80.9891C92.5753 81.685 92.6706 82.352 92.9613 82.9583C93.2571 83.5752 93.7362 84.0905 94.4572 84.5135C95.5168 85.136 96.0395 85.9315 96.1924 86.7267C96.3469 87.5307 96.1361 88.4018 95.5996 89.187L95.5983 89.1889C95.3185 89.6027 95.0813 90.0386 94.8583 90.4551C94.8386 90.492 94.819 90.5286 94.7995 90.5651C94.5948 90.9479 94.4003 91.3118 94.1818 91.6578L94.1816 91.658C93.8296 92.2158 93.6356 92.7919 93.6132 93.3881C93.5907 93.9831 93.7403 94.5659 94.0266 95.1365L94.0265 95.1366L94.0307 95.1445L94.1772 95.4239L94.1789 95.4271C95.1353 97.2194 95.352 99.032 94.6275 100.926L94.6263 100.929C94.5467 101.141 94.4839 101.367 94.4285 101.567C94.4132 101.622 94.3985 101.675 94.3841 101.725C94.3131 101.972 94.245 102.175 94.1499 102.349L94.1479 102.353C92.6457 105.153 92.3439 108.126 92.5572 111.175L92.5573 111.176C92.6269 112.127 92.5083 113.09 92.3838 114.102C92.3543 114.341 92.3244 114.584 92.2967 114.829L92.2963 114.832L93.5619 75.1008ZM86.9205 90.114L86.421 90.092L86.9205 90.1138C86.9205 90.1139 86.9205 90.114 86.9205 90.114ZM87.9075 109.436V108.936H87.9063C87.907 109.103 87.9075 109.269 87.9075 109.436ZM87.9075 109.436H88.364C88.364 109.604 88.3632 109.77 88.3621 109.936H87.9075H87.864V109.436H87.9075ZM88.4103 106.615C88.4103 106.615 88.4103 106.614 88.4104 106.613C88.4104 106.613 88.4104 106.612 88.4104 106.611L87.9105 106.602L88.4103 106.615ZM86.7142 97.6499C86.7141 97.6496 86.7139 97.6494 86.7138 97.6491L86.2628 97.8629L86.7142 97.6499ZM87.027 100.736C87.027 100.736 87.0271 100.735 87.0271 100.735C87.0272 100.735 87.0272 100.735 87.0272 100.735L86.5408 100.623L87.027 100.736ZM87.1525 103.764L87.568 103.487C87.5678 103.486 87.5676 103.486 87.5673 103.486L87.1525 103.764ZM89.5448 116.011C89.5446 116.011 89.5444 116.011 89.5442 116.01L89.1845 116.358L89.5448 116.011ZM91.9087 115.786L92.335 116.048L91.9129 115.78C91.9122 115.781 91.9115 115.782 91.9108 115.783C91.9101 115.784 91.9094 115.785 91.9087 115.786Z" fill="#1ABED6" stroke="black"/>
<path d="M90.9735 58.7127L90.974 58.7126C92.2526 58.2486 92.8948 57.185 93.0029 55.7258C93.0029 55.7258 93.0029 55.7258 93.0029 55.7258L93.5015 55.7627C93.6605 53.6144 93.9665 51.5097 94.4815 49.408L90.9735 58.7127ZM90.9735 58.7127C89.706 59.1739 88.4615 58.8753 87.3469 57.9627C87.146 57.7981 86.9457 57.6357 86.7465 57.4742C86.1421 56.9842 85.5475 56.5021 84.9756 55.9901C83.9253 55.043 83.743 53.8166 84.1489 52.4702C84.468 51.4292 84.9666 50.4154 85.5089 49.4114L85.5094 49.4105M90.9735 58.7127L85.5094 49.4105M85.5094 49.4105C85.7878 48.8926 86.013 48.3565 86.0504 47.7807C86.0889 47.1876 85.9257 46.6043 85.5239 45.9983C84.8974 45.0404 85.1372 43.6271 85.9839 42.6832L85.5094 49.4105ZM93.6101 47.1266C94.039 47.5556 94.2444 48.2714 93.9959 49.289L85.9839 42.6832C86.7376 41.8445 87.7329 41.4388 88.8504 41.3109L88.8506 41.3108C89.435 41.2437 90.0047 41.5164 90.4239 42.0374C90.8435 42.559 91.0811 43.2986 90.9881 44.0676L90.9876 44.0716C90.9427 44.4694 90.8695 44.8525 90.7836 45.3016C90.742 45.5192 90.6974 45.7523 90.6517 46.0101L90.5314 46.6877L91.2131 46.5926C92.3805 46.4298 93.1712 46.6877 93.6101 47.1266Z" fill="#1ABED6" stroke="black"/>
<path d="M414.539 85.5519L414.539 85.552C414.028 85.6868 413.728 85.9144 413.567 86.1755C413.405 86.4377 413.337 86.8085 413.438 87.3203L413.438 87.3206C413.561 87.943 413.799 88.3702 414.106 88.6299C414.404 88.8826 414.825 89.0242 415.419 88.971L415.419 88.971C416.657 88.8604 417.691 89.2592 418.654 89.6305C418.75 89.6678 418.846 89.7048 418.941 89.7409L418.942 89.7412C419.39 89.9121 419.803 90.142 420.188 90.3732C420.329 90.4582 420.464 90.5413 420.595 90.6224C420.834 90.7703 421.063 90.912 421.306 91.0476C422.033 91.4536 422.741 91.7186 423.605 91.6136L424.377 91.5199L424.142 92.261C424.1 92.3926 424.072 92.5008 424.044 92.6101C424.031 92.6585 424.018 92.7071 424.004 92.7581C423.963 92.9087 423.909 93.0854 423.809 93.2535C423.046 94.559 422.756 95.9694 422.707 97.5271L422.707 97.5287C422.678 98.3926 422.263 99.2631 421.871 99.9322C421.412 100.719 421.284 101.463 421.506 102.257L421.506 102.258C421.714 103.008 421.942 103.725 422.291 104.345L422.291 104.345C422.544 104.796 422.696 105.239 422.714 105.713C422.732 106.186 422.614 106.646 422.399 107.127C421.606 108.915 421.42 110.7 422.358 112.454L422.36 112.456C422.545 112.808 422.718 113.288 422.698 113.757L422.698 113.761C422.665 114.402 422.657 115.024 422.648 115.656C422.642 116.145 422.635 116.64 422.617 117.156C422.577 118.302 422.479 119.463 422.182 120.582L422.182 120.582C421.411 123.474 421.34 126.358 421.409 129.331L420.909 129.342L421.409 129.331C421.439 130.642 421.708 131.889 422.47 132.9C422.82 133.362 423.13 133.47 423.338 133.454C423.55 133.438 423.851 133.278 424.146 132.773L424.146 132.772C424.249 132.597 424.311 132.396 424.393 132.13C424.406 132.087 424.419 132.043 424.434 131.997C424.892 130.502 425.344 129.004 425.783 127.498C425.847 127.281 425.912 127.072 425.975 126.869C426.16 126.275 426.331 125.729 426.401 125.158C426.819 121.627 427.218 118.093 427.539 114.558C427.718 112.578 428.037 110.583 429.297 108.82C429.539 108.479 429.718 108.098 429.742 107.788C429.755 107.621 429.768 107.456 429.781 107.292C429.891 105.929 429.99 104.689 429.527 103.485L429.994 103.306M414.539 85.5519L434.195 62.0916C435.526 63.2664 435.527 64.7504 435.263 66.531L435.193 66.7534C433.952 69.1795 433.446 71.7941 432.981 74.3584C432.556 76.6948 431.873 78.9619 430.863 81.1229C430.675 81.5246 430.539 81.943 430.421 82.3495C430.374 82.5113 430.331 82.6665 430.288 82.819C430.22 83.0644 430.154 83.3028 430.076 83.55L429.942 83.9776L430.353 84.1576C431.572 84.692 432.686 84.5276 433.614 84.3907C433.753 84.3702 433.888 84.3503 434.018 84.3335L434.02 84.3332C435.289 84.1634 435.879 84.1419 436.318 84.3099C436.739 84.4711 437.096 84.8377 437.772 85.7715L437.922 85.9783H438.177C438.49 85.9783 438.799 85.9772 439.106 85.9761C439.8 85.9735 440.481 85.971 441.164 85.9818C442.361 86.0018 443.362 86.4158 444.114 87.3075L444.116 87.3095C444.651 87.9374 445.273 88.2103 446.036 88.3105C446.948 88.4303 447.847 88.6032 448.665 88.9125L448.665 88.9125C449.254 89.1349 449.839 89.5302 450.284 89.9914L450.285 89.9925C450.718 90.4379 450.865 90.8573 450.842 91.2208C450.819 91.5892 450.616 92.0008 450.146 92.4124C449.905 92.6221 449.657 92.7909 449.383 92.9775C449.233 93.0792 449.076 93.1862 448.908 93.3081L448.713 93.4492L448.702 93.6896C448.655 94.6763 448.441 95.2026 448.113 95.4966C447.782 95.7939 447.216 95.9615 446.194 95.9255C444.783 95.8699 443.507 95.4318 442.394 94.5864L442.394 94.5859C441.344 93.7914 440.294 93.5832 438.967 93.7919L439.045 94.2859M414.539 85.5519C414.908 85.4544 415.297 85.3932 415.682 85.3705L414.539 85.5519ZM429.994 103.306L429.528 103.486C429.215 102.678 429.25 101.876 429.686 101.1C430.686 99.312 430.796 97.3799 430.541 95.3025C430.454 94.6107 430.434 93.8919 430.415 93.2035C430.406 92.9019 430.398 92.6061 430.384 92.321L430.371 92.0522L430.588 91.8934L430.97 91.6145L431.209 91.4399L431.477 91.5652C431.635 91.6391 431.783 91.6947 431.949 91.7568C432.057 91.7975 432.173 91.841 432.304 91.8943C432.601 92.0147 432.936 92.1734 433.215 92.4306L433.215 92.4307C434.849 93.9392 436.85 94.1195 438.969 93.7917L439.045 94.2859M429.994 103.306C430.5 104.623 430.39 105.982 430.28 107.33C430.267 107.496 430.253 107.661 430.241 107.825C430.206 108.267 429.969 108.737 429.704 109.11M429.994 103.306L429.704 109.11M439.045 94.2859C440.257 94.0953 441.165 94.2828 442.092 94.9846L430.122 101.345C431.196 99.4257 431.299 97.3707 431.037 95.2409C430.953 94.5734 430.934 93.8958 430.915 93.219C430.907 92.9112 430.898 92.6035 430.883 92.297L431.265 92.0181C431.437 92.0984 431.619 92.167 431.801 92.2356C432.194 92.384 432.588 92.5323 432.876 92.7981C434.671 94.4549 436.857 94.6244 439.045 94.2859ZM429.704 109.11C428.526 110.757 428.214 112.636 428.037 114.603C427.715 118.145 427.316 121.685 426.897 125.217C426.821 125.838 426.632 126.445 426.443 127.051C426.382 127.247 426.321 127.443 426.263 127.639C425.823 129.148 425.37 130.648 424.911 132.145L429.704 109.11ZM424.891 72.4065L424.891 72.4077C424.911 73.7235 424.623 74.948 424.043 76.1247C423.356 77.5268 423.172 78.9816 423.482 80.5525C423.672 81.5126 423.666 82.3561 423.179 82.9468C422.693 83.5362 421.87 83.7005 420.918 83.7051L420.917 83.7051C419.914 83.708 419.099 83.8069 418.432 84.37C417.608 85.067 416.659 85.313 415.682 85.3705L424.891 72.4065ZM424.891 72.4065C424.861 70.6902 425.314 69.0421 425.893 67.3607L424.891 72.4065Z" fill="#1ABED6" stroke="black"/>
<path d="M130.669 98.6935L130.669 98.6935C129.7 99.3924 128.825 99.8025 127.896 99.8097C126.968 99.8168 126.084 99.4201 125.103 98.7322C124.851 98.5559 124.605 98.3709 124.368 98.1922C124.334 98.1664 124.3 98.1408 124.266 98.1153C123.994 97.9107 123.731 97.7155 123.461 97.5361L123.46 97.5352C123.006 97.2304 122.584 97.058 122.194 97.0316C121.821 97.0064 121.431 97.1111 121.013 97.4513L121.012 97.4523C120.635 97.7578 120.227 97.927 119.792 97.9503C119.363 97.9732 118.954 97.8522 118.573 97.6556L118.571 97.6548C117.675 97.1886 116.839 97.3425 115.955 97.9053L115.953 97.9068C115.636 98.1059 115.329 98.3216 115.01 98.5458C114.964 98.5784 114.917 98.6113 114.87 98.6443C114.505 98.9003 114.124 99.1633 113.721 99.3975L113.719 99.3986C113.077 99.7683 112.376 99.8234 111.808 99.4989C111.241 99.1747 110.932 98.5434 110.922 97.8042C110.915 97.3305 111.008 96.82 111.205 96.3763M130.669 98.6935L116.99 108.11C116.327 108.893 115.768 109.777 115.295 110.669L115.294 110.67C115.002 111.226 114.756 111.805 114.519 112.362L114.493 112.423C114.245 113.006 114.006 113.564 113.72 114.091C113.356 114.763 112.859 115.404 112.301 115.928C112.047 116.164 111.783 116.246 111.544 116.229C111.301 116.211 111.03 116.088 110.781 115.813L110.778 115.811C110.448 115.452 110.173 114.992 110.045 114.551C109.859 113.909 109.786 113.211 109.771 112.506L109.771 112.506C109.758 111.908 109.696 111.313 109.475 110.758C109.249 110.191 108.868 109.693 108.264 109.274L108.262 109.272C107.781 108.942 107.498 108.54 107.355 108.083C107.209 107.617 107.2 107.062 107.324 106.426C107.476 105.656 107.477 104.944 107.043 104.438C106.618 103.943 105.913 103.811 105.14 103.792L105.139 103.792C104.859 103.786 104.593 103.787 104.335 103.787C103.871 103.789 103.43 103.79 102.971 103.752L102.969 103.752C102.262 103.697 101.85 103.513 101.62 103.267C101.399 103.03 101.261 102.642 101.318 101.969L101.318 101.969C101.383 101.204 101.645 100.445 101.926 99.63C101.97 99.5027 102.014 99.374 102.058 99.2438L102.059 99.2436C102.121 99.0605 102.221 98.8772 102.364 98.649C102.406 98.5819 102.453 98.5084 102.504 98.4298C102.614 98.258 102.741 98.0619 102.86 97.8555L103.297 97.1044H102.428C102.267 97.1044 102.141 97.1066 102.036 97.1083C101.859 97.1113 101.739 97.1133 101.605 97.1029L101.604 97.1029C101.037 97.0599 100.625 96.8588 100.378 96.5842C100.14 96.3189 100.008 95.9328 100.096 95.4034L100.096 95.4019C100.256 94.4157 100.656 93.4191 101.137 92.4885L101.137 92.4871C101.404 91.9662 101.818 91.5271 102.283 91.0346C102.399 90.9108 102.519 90.7836 102.641 90.6509L102.641 90.6503C103.524 89.6833 104.038 88.5456 104.107 87.2273C104.203 85.494 104.642 83.9213 105.482 82.3572L105.483 82.355C106.124 81.1461 106.317 79.6668 106.485 78.386C106.49 78.3444 106.496 78.303 106.501 78.2619C106.711 76.6987 107.059 75.6957 107.669 74.9742C108.279 74.2544 109.207 73.7471 110.733 73.3086L110.733 73.3087L110.743 73.3056L111.461 73.0827C112.312 72.9247 113.048 72.6183 113.604 72.073C114.171 71.517 114.501 70.762 114.622 69.8072C114.69 69.2878 115.141 68.6246 115.65 68.1967L115.65 68.1965C117.369 66.7489 119.4 65.989 121.666 65.8417C122.512 65.7888 123.177 66.0023 123.65 66.573C123.995 66.9895 124.386 67.2157 124.82 67.3134C125.228 67.4054 125.651 67.3766 126.038 67.3409C127.262 67.2314 128.484 67.188 129.723 67.144C130.203 67.127 130.686 67.1098 131.172 67.0887L131.173 67.0887C131.981 67.0527 132.561 67.3624 132.911 68.0376L132.911 68.039C133.282 68.7488 133.111 69.4545 132.588 70.1722C131.325 71.898 129.531 72.5736 127.384 72.6575C126.507 72.6916 125.628 72.6887 124.738 72.6822C123.581 72.6719 122.489 72.9319 121.41 73.615L121.032 73.8543L121.228 74.2564C121.518 74.8505 121.515 75.3526 121.359 75.8C121.195 76.2672 120.848 76.7136 120.381 77.1419C118.916 78.4848 117.392 79.7603 115.858 81.0439C115.546 81.3051 115.234 81.5666 114.921 81.8291L114.921 81.8293C113.549 82.9839 112.103 84.2865 111.803 86.5241L111.762 86.8372L112.026 87.0095C112.163 87.0983 112.278 87.1724 112.38 87.2381C112.542 87.343 112.672 87.4264 112.802 87.5138L112.803 87.5143C113.729 88.13 114.168 88.6346 114.324 89.1651C114.481 89.697 114.388 90.3795 113.929 91.4443C113.738 91.8843 113.489 92.3082 113.213 92.7478C113.142 92.8616 113.068 92.9776 112.993 93.0952C112.784 93.4218 112.568 93.7616 112.373 94.105L112.372 94.1064C111.962 94.8356 111.552 95.5893 111.205 96.3763M130.669 98.6935C131.375 98.1835 131.928 97.9863 132.335 97.9978C132.696 98.0081 133.027 98.1856 133.319 98.6826L133.32 98.6843C133.595 99.1481 133.72 99.8674 133.628 100.428L133.628 100.43C133.153 103.395 130.439 105.35 127.482 104.857C125.943 104.601 124.65 104.896 123.458 105.979C122.88 106.5 122.205 106.953 121.512 107.216L121.512 107.216C121.226 107.326 120.895 107.412 120.575 107.447C120.251 107.481 119.975 107.458 119.776 107.382L119.775 107.382M130.669 98.6935L119.775 107.382M111.205 96.3763C111.205 96.3765 111.205 96.3767 111.205 96.3769L111.662 96.5787L111.205 96.376C111.205 96.3761 111.205 96.3762 111.205 96.3763ZM119.775 107.382C119.202 107.165 118.669 107.128 118.178 107.277M119.775 107.382L118.178 107.277M118.178 107.277C117.694 107.424 117.307 107.734 116.99 108.109L118.178 107.277Z" fill="#1ABED6" stroke="black"/>
<path d="M415.797 72.494L415.317 72.6322C415.428 73.0191 415.461 73.41 415.498 73.8529C415.513 74.0316 415.528 74.2189 415.55 74.4178L415.55 74.4181C415.645 75.2806 415.483 76.0638 415.031 76.8195C414.171 78.2581 413.226 79.4889 411.816 80.2507L411.816 80.251C411.348 80.5045 410.948 80.7204 410.549 80.7973C409.189 81.0564 408.037 81.6514 406.971 82.4784C406.374 82.9406 405.706 83.2993 405.001 83.6786C404.788 83.7929 404.572 83.909 404.353 84.0304L404.351 84.0315C404.158 84.1402 403.953 84.2294 403.723 84.3302C403.686 84.3462 403.649 84.3624 403.611 84.3791C403.345 84.4959 403.049 84.6311 402.771 84.8153L402.769 84.8166C402.267 85.1532 401.958 85.6611 401.949 86.2078C401.941 86.7661 402.247 87.2739 402.789 87.5736C404.841 88.716 406.023 90.6023 407.292 92.6276C407.343 92.7081 407.393 92.7889 407.444 92.8699C407.926 93.6386 407.951 94.5002 407.822 95.4358C407.589 97.1162 407.986 98.4715 409.025 99.8598C411.202 102.773 411.993 106.173 411.436 109.766C411.048 112.256 411.592 114.446 412.509 116.602C413.047 117.881 413.5 119.204 413.904 120.539L413.905 120.54C414.109 121.21 413.98 121.895 413.544 122.501L413.543 122.502C413.09 123.133 412.495 123.459 411.896 123.515C411.297 123.571 410.644 123.36 410.067 122.819C408.896 121.719 408.281 120.263 407.968 118.669C407.616 116.842 407.172 115.053 406.509 113.287L406.509 113.286C406.212 112.498 406.197 111.523 406.244 110.541C406.35 108.356 405.737 106.486 404.124 104.908C403.474 104.27 402.934 103.456 402.455 102.61C401.136 100.278 399.57 98.107 397.379 96.4248C397.098 96.2085 396.798 95.9924 396.528 95.7976C396.369 95.6831 396.221 95.576 396.092 95.4805L395.347 94.9274L395.295 95.8537C395.283 96.0643 395.279 96.2807 395.276 96.5021C395.268 96.9856 395.26 97.493 395.163 98.016C395.123 98.2265 395.084 98.4357 395.046 98.6432C394.838 99.7818 394.639 100.868 394.205 101.838L394.205 101.839C393.431 103.573 393.048 105.309 393.016 107.202L393.016 107.202C392.997 108.342 392.825 109.529 392.418 110.541C392.099 111.325 391.512 111.754 390.898 111.862C390.28 111.97 389.58 111.762 389.022 111.159C388.759 110.874 388.567 110.381 388.504 109.913C388.426 109.323 388.497 108.687 388.582 108.003L388.582 108.001C388.791 106.288 388.774 104.599 388.548 102.868L388.548 102.868C388.387 101.634 388.527 100.266 388.876 99.0434C389.369 97.3262 389.352 95.7611 388.445 94.136L388.445 94.1353C387.774 92.9386 387.836 91.6321 388.353 90.2944L388.353 90.2941C388.506 89.8978 388.689 89.5112 388.882 89.1056L388.889 89.0904C389.076 88.6954 389.273 88.2818 389.439 87.8527C389.749 87.0654 389.854 86.3352 389.621 85.6696C389.387 85.001 388.85 84.5071 388.122 84.1073C387.127 83.5583 386.53 82.8623 386.466 81.8273L386.466 81.8268C386.458 81.705 386.45 81.5844 386.442 81.4649C386.382 80.5844 386.327 79.7689 386.49 79.0144C387.1 76.2159 387.524 73.4179 387.594 70.5174C387.626 69.2446 387.781 67.9698 387.964 66.676C388.008 66.3601 388.055 66.0423 388.101 65.7231C388.244 64.7438 388.389 63.7515 388.49 62.7605C388.588 61.8234 388.605 60.8644 388.621 59.9313C388.629 59.5002 388.636 59.0746 388.652 58.6593L388.652 58.6577C388.656 58.5318 388.656 58.4067 388.655 58.2899C388.655 58.2758 388.655 58.2619 388.655 58.2481C388.654 58.1445 388.654 58.0478 388.655 57.952C388.66 57.7341 388.676 57.5541 388.718 57.3978L388.718 57.3978L388.719 57.3956C388.958 56.5048 389.663 55.9965 390.365 56.0053L390.368 56.0054C390.715 56.0079 391.008 56.1048 391.232 56.2855C391.454 56.4643 391.648 56.757 391.742 57.2242L391.743 57.2246C392.05 58.7373 392.233 60.2739 392.419 61.8342C392.462 62.1994 392.506 62.5659 392.551 62.9336C392.565 63.0478 392.576 63.1715 392.587 63.3026C392.648 64.0333 392.728 64.9892 393.564 65.7608L393.98 66.1448L394.31 65.6843C394.391 65.5703 394.465 65.4658 394.534 65.3679C394.683 65.1558 394.81 64.9749 394.949 64.7964L394.95 64.7953C395.349 64.282 395.739 63.7678 396.126 63.2563C397.066 62.0161 397.993 60.7922 399.011 59.639C399.684 58.8781 400.254 58.544 400.823 58.465C401.406 58.3842 402.092 58.5546 403.032 59.0357L403.033 59.0361C404.335 59.7008 405.756 60.0767 407.31 59.7265L407.311 59.7263C408.799 59.3877 410.042 59.8325 411.175 60.8933C411.684 61.3751 411.966 61.8431 412.057 62.296C412.145 62.738 412.064 63.2308 411.718 63.7993L411.718 63.8002C411.406 64.3145 411.274 64.7976 411.33 65.293C411.385 65.769 411.608 66.1919 411.868 66.5951L411.87 66.5972C412.09 66.9349 412.306 67.2913 412.527 67.6554C413.09 68.5829 413.683 69.5608 414.457 70.4097L414.458 70.411C414.664 70.6353 414.819 70.9528 414.954 71.3538C415.041 71.6125 415.108 71.865 415.179 72.1298C415.222 72.2916 415.266 72.458 415.317 72.6333L415.797 72.494ZM415.797 72.494C415.753 72.3415 415.711 72.1844 415.669 72.0257C415.478 71.311 415.279 70.5649 414.827 70.0728L412.054 80.6906C413.584 79.8639 414.586 78.5387 415.461 77.0761C415.97 76.2243 416.153 75.3315 416.047 74.3634C416.029 74.1957 416.015 74.0265 416 73.8573C415.962 73.3949 415.923 72.9316 415.797 72.494ZM402.341 75.027L402.828 74.9118C402.586 73.8908 402.482 73.0004 402.675 72.1987C402.863 71.4203 403.346 70.6652 404.41 69.9445L405.562 69.1645L404.177 69.0328C403.393 68.9582 402.747 68.9144 402.209 68.9322C401.669 68.9501 401.203 69.0305 400.796 69.2294C399.966 69.6351 399.544 70.4557 399.083 71.5987L399.083 71.5999C398.83 72.2307 398.508 72.7178 398.084 73.0892C397.661 73.4601 397.108 73.7391 396.359 73.9136L395.831 74.0363L395.996 74.5522C396.052 74.7294 396.085 74.8895 396.122 75.0676C396.145 75.1792 396.169 75.2979 396.202 75.4322C396.271 75.7149 396.387 76.1132 396.701 76.3714C397.592 77.1062 398.276 77.9746 398.859 78.98L398.859 78.9803C398.994 79.2122 399.207 79.3539 399.357 79.4472C399.42 79.4865 399.477 79.52 399.531 79.5521C399.633 79.6121 399.726 79.6671 399.837 79.7454L400.219 80.0145L400.513 79.652C400.695 79.4283 400.87 79.229 401.05 79.0255C401.169 78.89 401.29 78.7527 401.416 78.605C401.714 78.254 402.008 77.8781 402.236 77.4519L402.237 77.4503C402.418 77.1076 402.611 76.6928 402.737 76.2655C402.86 75.846 402.935 75.3641 402.827 74.9111L402.341 75.027ZM402.341 75.027C401.895 73.1414 401.839 71.4404 403.538 69.9802L400.125 79.3367C400.31 79.1088 400.5 78.8929 400.687 78.6812C401.11 78.2006 401.514 77.7421 401.795 77.216C402.142 76.5619 402.499 75.6881 402.341 75.027ZM390.371 55.5054L390.371 55.5054L390.371 55.5054Z" fill="#1ABED6" stroke="black"/>
<path d="M380.636 82.0102L380.637 82.0087C381.363 79.3964 381.3 76.8646 380.018 74.4435L380.018 74.4433C379.691 73.8262 379.547 73.1054 379.482 72.4677M380.636 82.0102L379.979 72.4147M380.636 82.0102C380.356 83.0313 379.891 84.0167 379.412 85.0326L379.368 85.1251C379.368 85.1254 379.368 85.1257 379.368 85.126C378.948 86.0068 378.798 86.8463 378.935 87.6739C379.071 88.4954 379.481 89.2536 380.09 89.9902C381.287 91.4478 382.298 92.9948 382.746 94.8388L382.746 94.8388C383.195 96.6866 382.498 98.3005 381.463 99.7482C379.683 102.236 377.727 104.626 375.589 106.787C375.031 107.351 374.34 107.806 373.575 108.241C373.245 108.429 372.908 108.61 372.564 108.794C372.511 108.822 372.457 108.851 372.403 108.88C372.006 109.093 371.603 109.311 371.211 109.544L371.211 109.544C370.969 109.688 370.671 109.758 370.505 109.726L370.504 109.726C369.668 109.569 368.884 109.647 368.147 109.789C367.78 109.86 367.418 109.949 367.069 110.035L367.065 110.036C366.713 110.122 366.374 110.205 366.033 110.272C365.165 110.44 364.569 110.38 364.111 110.149C363.65 109.917 363.246 109.472 362.85 108.695C362.515 108.033 362.045 107.739 361.491 107.495L361.49 107.494C360.672 107.139 359.884 106.69 359.112 106.202L359.111 106.202C359.072 106.177 359.032 106.152 358.992 106.126C358.067 105.543 357.006 104.874 355.53 105.258C355.106 105.366 354.722 105.292 354.407 105.084C354.086 104.872 353.805 104.498 353.65 103.959L353.65 103.959C353.44 103.233 353.362 102.497 353.286 101.776C353.254 101.477 353.223 101.181 353.183 100.889C353.22 100.489 353.252 100.116 353.282 99.7594C353.347 98.9943 353.406 98.309 353.497 97.6205L353.497 97.6202C353.857 94.893 353.544 92.3069 351.722 89.9604L351.722 89.9601M380.636 82.0102L351.722 89.9601M379.482 72.4677C379.482 72.467 379.482 72.4663 379.482 72.4656L379.979 72.4147M379.482 72.4677C379.482 72.4683 379.482 72.469 379.482 72.4696L379.979 72.4147M379.482 72.4677C379.349 71.2635 378.946 70.2962 378.079 69.4416L378.079 69.4412C376.409 67.7901 374.64 66.4446 372.454 65.6734M379.979 72.4147C379.836 71.1151 379.392 70.0341 378.431 69.0856C376.732 67.4068 374.903 66.0068 372.62 65.2017M372.454 65.6734C372.454 65.6734 372.454 65.6735 372.454 65.6735L372.62 65.2017M372.454 65.6734C372.454 65.6733 372.454 65.6733 372.454 65.6733L372.62 65.2017M372.454 65.6734C369.457 64.6215 366.745 64.9798 364.474 67.0781L364.135 66.7111C366.564 64.4659 369.48 64.0992 372.62 65.2017M351.722 89.9601C350.585 88.4973 350.667 86.0669 352.043 84.4351L351.722 89.9601ZM369.495 94.7848L369.495 94.7855C369.875 95.5721 370.093 96.0489 370.172 96.5397C370.242 96.9736 370.198 97.4072 370.135 98.0325C370.127 98.1071 370.12 98.1844 370.112 98.2648L370.071 98.6736L369.663 98.7135C368.697 98.8078 367.681 98.9053 366.777 98.9867L366.475 99.0139L366.311 98.759C366.05 98.3528 365.8 97.9621 365.557 97.5819C365.097 96.8629 364.661 96.1813 364.219 95.5024C363.676 94.6792 363.104 94.1868 362.251 94.2275L362.25 94.2276C361.727 94.2514 361.296 94.1059 360.984 93.7756C360.695 93.4698 360.567 93.065 360.494 92.6982C360.427 92.3614 360.365 92.0231 360.304 91.6894L360.29 91.6099C360.224 91.2487 360.158 90.8927 360.086 90.54L360.576 90.4396L360.086 90.5405C359.64 88.3744 360.149 86.4221 361.836 84.923C362.54 84.2971 363.011 83.6461 363.272 82.9367C363.533 82.2286 363.598 81.4284 363.439 80.4838C363.28 79.5321 363.54 78.7503 364.042 78.1242C364.528 77.5176 365.226 77.0726 365.931 76.7261L366.877 76.2614L366.639 77.2879C366.574 77.5664 366.508 77.8421 366.443 78.1162C366.269 78.8485 366.097 79.5689 365.956 80.2986L365.956 80.3003C365.771 81.2369 365.877 82.0186 366.196 82.6881C366.518 83.3638 367.076 83.9624 367.854 84.4948L369.495 94.7848ZM369.495 94.7848C368.703 93.1479 368.725 91.5403 369.406 89.8671C369.468 89.7141 369.539 89.5526 369.611 89.3858C369.771 89.0162 369.943 88.6201 370.071 88.2303C370.273 87.6156 370.356 87.0546 370.176 86.5253C369.997 85.9968 369.591 85.6021 369.063 85.2366L369.495 94.7848ZM362.383 69.4031C363.049 68.5678 363.722 67.7741 364.474 67.0783L352.044 84.4351C353.289 82.9611 353.929 81.3605 354.222 79.5412L354.222 79.5403C354.665 76.7586 356.426 74.9191 358.799 73.4061L358.8 73.4059C359.418 73.0109 359.929 72.4406 360.359 71.9374L360.359 71.9369C360.838 71.3745 361.3 70.7834 361.755 70.2022C361.966 69.9324 362.175 69.6647 362.383 69.4031Z" fill="#1ABED6" stroke="black"/>
<mask id="path-9-inside-2_107_31" fill="white">
<path d="M351.771 136.53C351.971 133.896 351.244 131.582 349.804 129.392C348.337 127.163 347.603 124.754 348.709 122.098L348.884 121.493C349.533 119.1 349.236 116.889 347.473 115.054C346.149 113.673 345.787 112.088 346.174 110.265C346.685 107.87 346.517 105.649 345.078 103.501C343.833 101.637 343.617 99.5792 344.607 97.3742C345.444 95.5233 345.99 93.5244 346.52 91.5547C346.933 90.0198 346.936 88.3946 346.358 86.9008C345.89 85.6825 346.012 84.5765 346.302 83.3771C346.611 82.1121 346.783 80.8059 346.952 79.5123C347.083 78.5167 346.752 77.6364 346.012 76.9532C345.038 76.0578 344.701 74.9428 344.863 73.6742C345.057 72.2176 345.337 70.777 344.579 69.3741C344.445 69.1298 344.523 68.7541 344.545 68.4406C344.732 65.91 344.095 63.5545 343.105 61.2617C342.537 59.94 342.297 58.5496 342.447 57.112C342.734 54.3216 342.559 51.5373 342.076 48.8031C341.554 45.8622 340.733 42.9805 340.115 40.0552C339.899 39.0435 339.759 37.9791 339.822 36.9548C339.949 34.8657 340.199 32.78 340.477 30.7004C340.815 28.1944 341.426 25.7642 342.503 23.4528C343.537 21.2167 344.495 18.943 345.454 16.6723C345.797 15.8516 346.09 15.0029 346.297 14.1382C346.547 13.0984 346.534 12.049 345.907 11.1035C345.073 9.84753 343.974 9.61278 342.881 10.6651C341.992 11.5324 341.149 12.5225 340.552 13.606C339.379 15.7358 338.03 17.7086 336.403 19.5098C335.27 20.7658 334.786 22.2631 334.717 23.973C334.589 27.2961 333.833 30.4095 331.433 32.924C330.749 33.6413 330.15 34.4494 329.598 35.276C329.042 36.0966 328.458 36.9453 328.142 37.8692C327.39 40.0457 326.572 42.2382 326.188 44.4994C325.679 47.5089 324.892 50.4222 324.096 53.3601C323.435 55.7998 322.304 57.8042 320.6 59.5648C319.52 60.6799 318.764 62.0016 318.293 63.4607C317.727 65.2083 317.234 66.9749 316.763 68.7511C316.55 69.5591 316.403 70.3953 316.326 71.2249C315.963 75.1961 315.676 79.1743 315.274 83.1359C315.177 84.0754 315.262 85.1187 314.612 85.9704L314.334 85.7266C313.298 84.2951 313.173 82.6383 313.013 80.9469C312.645 76.9818 312.242 73.0262 312.401 69.033C312.448 67.8271 312.401 66.6183 312.438 65.4124C312.47 64.4258 312.058 63.693 311.314 63.1041C311.031 62.8819 310.737 62.6752 310.409 62.4304C310.468 61.6881 310.527 60.9583 310.584 60.2319C310.718 58.4593 310.478 56.8121 309.335 55.3243C308.926 54.7981 308.748 53.965 308.755 53.2758C308.77 51.4971 308.935 49.715 309.077 47.9388C309.186 46.4666 308.658 45.2703 307.634 44.2591C307.372 44.0053 307.031 43.7986 306.844 43.5012C306.551 43.0377 306.126 42.502 306.154 42.02C306.244 40.3005 306.394 38.5685 306.728 36.8836C306.99 35.5554 307.593 34.2994 307.971 32.9902C308.651 30.6222 309.363 28.2642 309.9 25.862C310.175 24.6341 309.566 23.7759 308.535 23.3099C307.549 22.8554 306.724 22.9648 305.935 24.0457C304.576 25.9001 303.306 27.8323 302.151 29.8146C301.642 30.6944 301.433 31.7718 301.205 32.7871C300.827 34.491 300.421 36.1854 299.154 37.4755C297.783 38.8724 297.034 40.5729 296.547 42.4303C296.469 42.7372 296.312 43.0252 296.131 43.4701C295.276 41.259 294.926 41.0428 293.072 41.4873C293.006 41.1868 292.981 40.8703 292.866 40.5914C292.351 39.3419 291.371 39.1478 290.446 40.1465C290.059 40.5603 289.666 41.0358 289.475 41.559C288.76 43.5293 288.039 45.5025 287.48 47.516C286.925 49.5359 286.643 51.6316 286.103 53.6545C284.911 58.1082 284.034 62.6557 282.12 66.8967C281.886 67.4133 281.797 68.0022 281.692 68.566C281.136 71.6011 281.221 74.6202 281.861 77.6364C282.626 81.2253 282.551 84.8333 281.992 88.4418C281.636 90.7747 280.272 92.5754 278.802 94.3014C276.473 97.0291 275.455 100.167 275.745 103.76C275.885 105.507 276.254 107.168 276.956 108.774C278.175 111.549 278.624 114.389 277.522 117.331C277.337 117.82 277.203 118.34 277.141 118.856C276.975 120.159 276.925 121.437 277.515 122.712C277.85 123.442 277.999 124.318 278.005 125.133C278.027 128.337 277.952 131.538 277.946 134.742C277.943 135.308 278.049 135.891 278.202 136.44C278.418 137.235 278.879 137.887 279.726 138.083C280.643 138.296 281.206 137.695 281.68 137.048C282.529 135.885 283.128 134.601 283.272 133.157C283.535 130.56 284.384 128.162 285.395 125.784C285.851 124.701 286.039 123.457 286.116 122.273C286.266 119.95 285.757 117.682 285.276 115.421C285.158 114.866 285.071 114.261 285.167 113.714C285.645 111.017 286.672 108.521 288.717 106.68C290.4 105.154 291.099 103.431 290.809 101.233C290.743 100.71 290.784 100.172 290.674 99.661C290.328 98.0794 290.534 96.5541 290.887 94.9941C291.368 92.8488 291.911 90.6909 292.089 88.508C292.385 84.8834 293.003 81.3386 293.853 77.8179C294.446 75.3747 294.455 72.9504 293.587 70.5357C292.744 68.1868 292.819 65.8067 293.634 63.4296C294.04 62.2423 294.265 60.9959 294.655 59.8026C295.086 58.4809 295.386 57.0779 296.61 55.7341C296.709 56.4955 296.847 56.9871 296.825 57.4661C296.741 59.0386 296.631 60.6076 296.475 62.1676C296.279 64.1941 296.71 65.9321 298.502 67.1194C299.298 67.642 299.706 68.3974 299.86 69.3244C300.018 70.2549 300.484 71.1316 301.28 71.4983C303.166 72.3721 303.481 73.9973 303.656 75.7609L303.703 76.2304C304.075 79.3684 304.624 82.4286 306.179 85.2722C306.807 86.4188 306.891 87.875 307.168 89.1997C307.356 90.0674 307.278 91.023 307.609 91.8215C308.261 93.4091 308.152 94.9851 307.987 96.6193C307.646 100.099 308.583 102.11 311.655 102.721C312.414 102.871 312.838 103.335 312.91 104.121C312.988 104.901 313.091 105.68 313.191 106.46C313.453 108.496 313.769 110.526 315.036 112.236C315.776 113.235 316.722 113.812 318.018 113.511C319.086 113.26 319.969 112.167 320.088 110.836C320.2 109.633 320.297 108.418 320.228 107.219C320.041 103.949 320.997 101.014 322.548 98.1953C322.992 97.3902 323.341 96.4633 323.466 95.5544C323.691 93.8976 323.769 92.2133 323.819 90.5369C323.909 87.5118 324.453 84.6838 326.878 82.5696L327.194 82.2184C329.373 79.2244 330.606 75.9891 329.841 72.2056C329.257 69.2993 329.76 66.4678 330.531 63.6679C330.681 63.1196 330.906 62.5905 331.1 62.0517C331.365 62.6973 331.365 63.2736 331.365 63.8495C331.368 65.6286 331.911 67.1414 333.438 68.2033C333.819 68.4692 334.141 68.8328 334.449 69.1895C335.205 70.0698 335.607 71.0624 335.277 72.2402C334.971 73.3517 334.662 74.4607 334.324 75.5663C333.669 77.7181 332.71 79.8288 332.395 82.0273C331.949 85.1468 332.102 88.3194 333.313 91.3355C333.56 91.959 333.81 92.6256 333.85 93.2867C333.931 94.806 333.975 96.3374 333.878 97.8532C333.544 102.964 334.933 107.499 338.227 111.427C339.083 112.442 339.157 113.51 338.839 114.798C338.405 116.564 338.115 118.384 337.977 120.197C337.825 122.146 338.627 123.674 340.562 124.419L340.831 124.702C340.831 125.691 340.84 126.74 340.825 127.786C340.809 129.176 341.268 130.376 342.317 131.288C343.141 132.008 343.987 132.738 344.92 133.302C345.873 133.881 346.16 134.623 346.022 135.676C345.891 136.662 345.842 137.658 345.776 138.654C345.723 139.49 345.932 140.226 346.738 140.649C347.484 141.04 348.03 140.586 348.589 140.182L348.891 140.163L349.091 140.383C350.006 141.307 350.596 141.463 351.405 141C352.21 140.536 352.378 139.86 352.085 138.682C351.909 137.98 351.718 137.235 351.771 136.53Z"/>
</mask>
<path d="M351.771 136.53C351.971 133.896 351.244 131.582 349.804 129.392C348.337 127.163 347.603 124.754 348.709 122.098L348.884 121.493C349.533 119.1 349.236 116.889 347.473 115.054C346.149 113.673 345.787 112.088 346.174 110.265C346.685 107.87 346.517 105.649 345.078 103.501C343.833 101.637 343.617 99.5792 344.607 97.3742C345.444 95.5233 345.99 93.5244 346.52 91.5547C346.933 90.0198 346.936 88.3946 346.358 86.9008C345.89 85.6825 346.012 84.5765 346.302 83.3771C346.611 82.1121 346.783 80.8059 346.952 79.5123C347.083 78.5167 346.752 77.6364 346.012 76.9532C345.038 76.0578 344.701 74.9428 344.863 73.6742C345.057 72.2176 345.337 70.777 344.579 69.3741C344.445 69.1298 344.523 68.7541 344.545 68.4406C344.732 65.91 344.095 63.5545 343.105 61.2617C342.537 59.94 342.297 58.5496 342.447 57.112C342.734 54.3216 342.559 51.5373 342.076 48.8031C341.554 45.8622 340.733 42.9805 340.115 40.0552C339.899 39.0435 339.759 37.9791 339.822 36.9548C339.949 34.8657 340.199 32.78 340.477 30.7004C340.815 28.1944 341.426 25.7642 342.503 23.4528C343.537 21.2167 344.495 18.943 345.454 16.6723C345.797 15.8516 346.09 15.0029 346.297 14.1382C346.547 13.0984 346.534 12.049 345.907 11.1035C345.073 9.84753 343.974 9.61278 342.881 10.6651C341.992 11.5324 341.149 12.5225 340.552 13.606C339.379 15.7358 338.03 17.7086 336.403 19.5098C335.27 20.7658 334.786 22.2631 334.717 23.973C334.589 27.2961 333.833 30.4095 331.433 32.924C330.749 33.6413 330.15 34.4494 329.598 35.276C329.042 36.0966 328.458 36.9453 328.142 37.8692C327.39 40.0457 326.572 42.2382 326.188 44.4994C325.679 47.5089 324.892 50.4222 324.096 53.3601C323.435 55.7998 322.304 57.8042 320.6 59.5648C319.52 60.6799 318.764 62.0016 318.293 63.4607C317.727 65.2083 317.234 66.9749 316.763 68.7511C316.55 69.5591 316.403 70.3953 316.326 71.2249C315.963 75.1961 315.676 79.1743 315.274 83.1359C315.177 84.0754 315.262 85.1187 314.612 85.9704L314.334 85.7266C313.298 84.2951 313.173 82.6383 313.013 80.9469C312.645 76.9818 312.242 73.0262 312.401 69.033C312.448 67.8271 312.401 66.6183 312.438 65.4124C312.47 64.4258 312.058 63.693 311.314 63.1041C311.031 62.8819 310.737 62.6752 310.409 62.4304C310.468 61.6881 310.527 60.9583 310.584 60.2319C310.718 58.4593 310.478 56.8121 309.335 55.3243C308.926 54.7981 308.748 53.965 308.755 53.2758C308.77 51.4971 308.935 49.715 309.077 47.9388C309.186 46.4666 308.658 45.2703 307.634 44.2591C307.372 44.0053 307.031 43.7986 306.844 43.5012C306.551 43.0377 306.126 42.502 306.154 42.02C306.244 40.3005 306.394 38.5685 306.728 36.8836C306.99 35.5554 307.593 34.2994 307.971 32.9902C308.651 30.6222 309.363 28.2642 309.9 25.862C310.175 24.6341 309.566 23.7759 308.535 23.3099C307.549 22.8554 306.724 22.9648 305.935 24.0457C304.576 25.9001 303.306 27.8323 302.151 29.8146C301.642 30.6944 301.433 31.7718 301.205 32.7871C300.827 34.491 300.421 36.1854 299.154 37.4755C297.783 38.8724 297.034 40.5729 296.547 42.4303C296.469 42.7372 296.312 43.0252 296.131 43.4701C295.276 41.259 294.926 41.0428 293.072 41.4873C293.006 41.1868 292.981 40.8703 292.866 40.5914C292.351 39.3419 291.371 39.1478 290.446 40.1465C290.059 40.5603 289.666 41.0358 289.475 41.559C288.76 43.5293 288.039 45.5025 287.48 47.516C286.925 49.5359 286.643 51.6316 286.103 53.6545C284.911 58.1082 284.034 62.6557 282.12 66.8967C281.886 67.4133 281.797 68.0022 281.692 68.566C281.136 71.6011 281.221 74.6202 281.861 77.6364C282.626 81.2253 282.551 84.8333 281.992 88.4418C281.636 90.7747 280.272 92.5754 278.802 94.3014C276.473 97.0291 275.455 100.167 275.745 103.76C275.885 105.507 276.254 107.168 276.956 108.774C278.175 111.549 278.624 114.389 277.522 117.331C277.337 117.82 277.203 118.34 277.141 118.856C276.975 120.159 276.925 121.437 277.515 122.712C277.85 123.442 277.999 124.318 278.005 125.133C278.027 128.337 277.952 131.538 277.946 134.742C277.943 135.308 278.049 135.891 278.202 136.44C278.418 137.235 278.879 137.887 279.726 138.083C280.643 138.296 281.206 137.695 281.68 137.048C282.529 135.885 283.128 134.601 283.272 133.157C283.535 130.56 284.384 128.162 285.395 125.784C285.851 124.701 286.039 123.457 286.116 122.273C286.266 119.95 285.757 117.682 285.276 115.421C285.158 114.866 285.071 114.261 285.167 113.714C285.645 111.017 286.672 108.521 288.717 106.68C290.4 105.154 291.099 103.431 290.809 101.233C290.743 100.71 290.784 100.172 290.674 99.661C290.328 98.0794 290.534 96.5541 290.887 94.9941C291.368 92.8488 291.911 90.6909 292.089 88.508C292.385 84.8834 293.003 81.3386 293.853 77.8179C294.446 75.3747 294.455 72.9504 293.587 70.5357C292.744 68.1868 292.819 65.8067 293.634 63.4296C294.04 62.2423 294.265 60.9959 294.655 59.8026C295.086 58.4809 295.386 57.0779 296.61 55.7341C296.709 56.4955 296.847 56.9871 296.825 57.4661C296.741 59.0386 296.631 60.6076 296.475 62.1676C296.279 64.1941 296.71 65.9321 298.502 67.1194C299.298 67.642 299.706 68.3974 299.86 69.3244C300.018 70.2549 300.484 71.1316 301.28 71.4983C303.166 72.3721 303.481 73.9973 303.656 75.7609L303.703 76.2304C304.075 79.3684 304.624 82.4286 306.179 85.2722C306.807 86.4188 306.891 87.875 307.168 89.1997C307.356 90.0674 307.278 91.023 307.609 91.8215C308.261 93.4091 308.152 94.9851 307.987 96.6193C307.646 100.099 308.583 102.11 311.655 102.721C312.414 102.871 312.838 103.335 312.91 104.121C312.988 104.901 313.091 105.68 313.191 106.46C313.453 108.496 313.769 110.526 315.036 112.236C315.776 113.235 316.722 113.812 318.018 113.511C319.086 113.26 319.969 112.167 320.088 110.836C320.2 109.633 320.297 108.418 320.228 107.219C320.041 103.949 320.997 101.014 322.548 98.1953C322.992 97.3902 323.341 96.4633 323.466 95.5544C323.691 93.8976 323.769 92.2133 323.819 90.5369C323.909 87.5118 324.453 84.6838 326.878 82.5696L327.194 82.2184C329.373 79.2244 330.606 75.9891 329.841 72.2056C329.257 69.2993 329.76 66.4678 330.531 63.6679C330.681 63.1196 330.906 62.5905 331.1 62.0517C331.365 62.6973 331.365 63.2736 331.365 63.8495C331.368 65.6286 331.911 67.1414 333.438 68.2033C333.819 68.4692 334.141 68.8328 334.449 69.1895C335.205 70.0698 335.607 71.0624 335.277 72.2402C334.971 73.3517 334.662 74.4607 334.324 75.5663C333.669 77.7181 332.71 79.8288 332.395 82.0273C331.949 85.1468 332.102 88.3194 333.313 91.3355C333.56 91.959 333.81 92.6256 333.85 93.2867C333.931 94.806 333.975 96.3374 333.878 97.8532C333.544 102.964 334.933 107.499 338.227 111.427C339.083 112.442 339.157 113.51 338.839 114.798C338.405 116.564 338.115 118.384 337.977 120.197C337.825 122.146 338.627 123.674 340.562 124.419L340.831 124.702C340.831 125.691 340.84 126.74 340.825 127.786C340.809 129.176 341.268 130.376 342.317 131.288C343.141 132.008 343.987 132.738 344.92 133.302C345.873 133.881 346.16 134.623 346.022 135.676C345.891 136.662 345.842 137.658 345.776 138.654C345.723 139.49 345.932 140.226 346.738 140.649C347.484 141.04 348.03 140.586 348.589 140.182L348.891 140.163L349.091 140.383C350.006 141.307 350.596 141.463 351.405 141C352.21 140.536 352.378 139.86 352.085 138.682C351.909 137.98 351.718 137.235 351.771 136.53Z" fill="#1ABED6" stroke="black" stroke-width="2" mask="url(#path-9-inside-2_107_31)"/>
<path d="M180.157 55.1214L180.155 55.1217C179.875 55.1687 179.601 55.2091 179.333 55.2486C178.47 55.376 177.668 55.4943 176.925 55.794L176.924 55.7943C175.71 56.2818 174.513 56.9274 173.496 57.7197C170.547 60.0177 167.659 62.4024 164.768 64.7912C164.552 64.9688 164.337 65.1465 164.122 65.3242C164.026 65.4043 163.922 65.495 163.813 65.5904C163.541 65.8282 163.237 66.0947 162.927 66.2966C162.458 66.6022 161.9 66.8222 161.199 66.7553C160.416 66.6816 159.765 66.9804 159.11 67.5083L159.108 67.5093C158.625 67.8959 158.129 68.3092 157.629 68.7265C156.989 69.2603 156.34 69.8007 155.7 70.3004L155.7 70.3006C155.154 70.7263 154.543 71.1422 153.874 71.4352C153.874 71.4354 153.873 71.4355 153.873 71.4356L153.672 70.9776C152.939 71.3022 152.183 71.5746 151.421 71.8486C151.109 71.9607 150.797 72.0731 150.485 72.1895L180.157 55.1214ZM180.157 55.1214C180.379 55.0835 180.546 55.114 180.677 55.181C180.808 55.249 180.942 55.3752 181.057 55.5952L181.058 55.5966C181.164 55.797 181.165 55.9529 181.125 56.0885C181.081 56.2409 180.973 56.4061 180.801 56.5776L180.799 56.579C180.681 56.6976 180.563 56.8162 180.445 56.9347C179.195 58.1916 177.96 59.4327 176.631 60.5593L176.631 60.5595C176.613 60.5751 176.594 60.5906 176.576 60.6061C175.912 61.1698 175.205 61.7697 174.767 62.6932L174.766 62.6941C173.792 64.7588 172.305 66.2985 170.236 67.2579C170.029 67.3523 169.829 67.4663 169.653 67.567C169.626 67.5823 169.6 67.5974 169.574 67.612C169.369 67.7285 169.191 67.8245 169.01 67.8925L169.01 67.8926C166.618 68.7976 165.455 70.7551 164.926 72.9538L164.926 72.9547C164.107 76.3879 161.932 78.4481 158.721 79.6821L158.72 79.6823C158.089 79.9255 157.479 80.1507 156.865 80.3773C156.318 80.5791 155.768 80.7821 155.197 80.9999L155.196 81.0005C154.124 81.4134 153.382 82.1943 153.082 83.1424C152.781 84.0897 152.937 85.1534 153.562 86.1019L153.563 86.103C153.92 86.6419 154.24 87.1921 154.57 87.7564C154.735 88.0396 154.902 88.3263 155.077 88.617C155.122 88.694 155.17 88.7791 155.221 88.8686C155.352 89.1013 155.501 89.3646 155.668 89.5981L155.668 89.5982C156.221 90.3696 156.775 91.1372 157.33 91.9044C158.309 93.2591 159.286 94.612 160.248 95.9804C161.029 97.0909 162.15 97.4502 163.25 97.6364L163.251 97.6366C164.621 97.8658 165.491 98.2094 166.077 98.7663C166.658 99.3177 167.031 100.146 167.248 101.509C167.592 103.689 168.465 105.529 169.595 107.316C170.241 108.344 170.814 109.49 170.873 110.534C171.133 115.608 172.632 120.355 174.166 125.036L174.166 125.036C174.201 125.144 174.237 125.252 174.272 125.361C174.497 126.05 174.727 126.756 175 127.444C175.591 128.944 175.439 130.501 175.165 132.149L175.165 132.149C175.082 132.65 174.899 132.909 174.639 133.066C174.346 133.244 173.876 133.343 173.119 133.331L172.664 133.324L172.614 133.776C172.599 133.909 172.59 134.012 172.583 134.097C172.569 134.247 172.561 134.341 172.536 134.444L172.535 134.449C172.411 135.006 172.243 135.3 172.054 135.462C171.874 135.617 171.602 135.717 171.117 135.711C170.337 135.699 169.757 135.225 169.704 134.466L169.704 134.465C169.591 132.916 169.061 131.58 168.4 130.273L168.399 130.272C168.084 129.651 168 128.877 167.907 128.031C167.901 127.974 167.894 127.915 167.888 127.857C167.761 126.706 167.41 125.719 166.671 124.75L166.279 125.048L166.671 124.75C165.168 122.778 163.937 120.714 163.422 118.269C163.016 116.318 162.088 114.529 160.433 113.2C159.201 112.208 158.415 111.054 158.305 109.453C158.122 106.747 156.858 104.428 155.659 102.231C155.531 101.996 155.403 101.762 155.278 101.529L155.264 101.503L155.247 101.479L154.888 100.966L154.864 100.932L154.835 100.902C154.631 100.695 154.401 100.489 154.186 100.296C154.084 100.204 153.985 100.115 153.893 100.03C153.593 99.7529 153.34 99.4907 153.152 99.2039C152.965 98.9143 152.825 98.5761 152.686 98.1717C152.638 98.034 152.589 97.8821 152.536 97.7222C152.444 97.4386 152.343 97.1298 152.231 96.8299L152.028 96.291L151.523 96.5665C151.415 96.6257 151.324 96.6662 151.221 96.7118C151.158 96.74 151.09 96.7702 151.011 96.8081C150.838 96.8906 150.612 97.0111 150.441 97.2197C150.408 97.2591 150.375 97.298 150.343 97.3363C149.93 97.8327 149.596 98.2345 149.201 98.4676C149.004 98.5841 148.802 98.6501 148.575 98.6564C148.345 98.6627 148.06 98.6084 147.698 98.4384L147.125 98.1694L146.996 98.7889C146.55 100.928 146.156 102.82 145.766 104.715C145.627 105.383 145.491 106.05 145.354 106.717C145.08 108.052 144.806 109.386 144.521 110.719C144.411 111.229 144.299 111.703 144.108 112.115C143.22 113.996 142.547 115.937 141.927 117.897C141.666 118.719 141.006 119.51 140.296 120.244L140.295 120.245C139.989 120.562 139.757 120.632 139.588 120.621C139.404 120.61 139.151 120.496 138.829 120.151L138.828 120.15C138.234 119.517 137.747 118.924 137.454 118.268C137.168 117.628 137.057 116.906 137.26 115.993C137.345 115.611 137.424 115.234 137.503 114.861C137.822 113.34 138.126 111.895 138.778 110.521L138.778 110.52C139.042 109.96 139.226 109.355 139.339 108.755L138.848 108.663M180.157 55.1214L138.464 120.492M138.464 120.492C137.262 119.211 136.319 117.921 136.772 115.885C136.854 115.518 136.931 115.15 137.008 114.784C137.328 113.256 137.646 111.739 138.326 110.307C138.57 109.79 138.742 109.226 138.848 108.663M138.464 120.492C139.191 121.272 139.922 121.354 140.655 120.592L138.464 120.492ZM138.848 108.663C139.46 105.418 140.046 102.17 140.624 98.9161C140.808 97.8823 140.927 96.9398 139.919 96.075L139.339 108.755L138.848 108.663ZM142.216 59.1142L142.216 59.1143C141.577 62.8314 140.733 66.5703 139.343 70.1567L139.343 70.1569C139.152 70.6477 139.024 71.1739 138.912 71.7314C138.872 71.928 138.833 72.1338 138.793 72.3433C138.724 72.7084 138.653 73.0847 138.571 73.4436C138.501 73.7571 138.434 74.0815 138.366 74.4113C138.213 75.1602 138.054 75.9368 137.828 76.6765L142.216 59.1142ZM142.216 59.1142C142.572 57.0415 142.546 54.8754 142.52 52.7654C142.51 51.918 142.499 51.0796 142.514 50.26C142.522 49.8672 142.503 49.4696 142.486 49.0924C142.481 48.9963 142.477 48.9014 142.473 48.8083C142.453 48.3397 142.445 47.9011 142.492 47.477L142.216 59.1142ZM173.085 134.1C173.092 134.018 173.1 133.93 173.111 133.831L160.12 113.59C161.668 114.833 162.546 116.512 162.933 118.372C163.47 120.922 164.75 123.054 166.273 125.053C166.951 125.942 167.273 126.84 167.391 127.912C167.398 127.977 167.405 128.043 167.413 128.109C167.501 128.929 167.595 129.792 167.954 130.499C168.603 131.78 169.099 133.048 169.205 134.501C169.28 135.563 170.116 136.196 171.109 136.211C172.214 136.224 172.755 135.763 173.023 134.558C173.055 134.42 173.068 134.277 173.085 134.1ZM139.677 83.3987C139.445 83.6872 139.214 83.9735 138.984 84.253L141.116 99.0035C141.207 98.493 141.301 97.9215 141.213 97.3555C141.12 96.7602 140.835 96.2024 140.244 95.6955L140.243 95.6947C139.919 95.4184 139.809 95.0765 139.831 94.6867C139.855 94.277 140.028 93.8241 140.275 93.4144C141.642 91.1541 141.991 88.7241 142.023 86.2416C142.03 85.7771 142.143 85.3197 142.271 84.8032C142.306 84.6602 142.343 84.5127 142.378 84.3592L142.379 84.356C142.518 83.7408 142.671 83.1324 142.824 82.5194C142.894 82.2421 142.964 81.9639 143.033 81.6836L143.123 81.3153L142.793 81.1289L142.421 80.9192L142.095 80.7351L141.827 80.9965C141.749 81.0723 141.662 81.1529 141.572 81.2374C141.344 81.4494 141.09 81.6865 140.878 81.9356L140.877 81.9365C140.47 82.4158 140.071 82.9105 139.677 83.3987Z" fill="#1ABED6" stroke="black"/>
<mask id="path-11-inside-3_107_31" fill="white">
<path d="M253.971 103.087C253.1 100.995 252.326 98.899 252.466 96.5596C252.563 94.9465 252.426 93.3213 252.485 91.7051C252.532 90.399 252.582 89.0708 252.872 87.8057C253.387 85.5631 254.065 83.3521 254.711 81.1405C255.014 80.1102 254.949 79.1331 254.28 78.3065C253.331 77.1257 253.228 75.804 253.55 74.4387C253.95 72.7598 254.487 71.1096 254.93 69.4398C255.089 68.8419 255.27 68.2124 255.239 67.6044C255.192 66.5681 254.783 65.6091 253.759 65.1867C252.666 64.7323 251.689 65.1551 250.94 65.9978C250.425 66.5776 249.888 67.2132 249.61 67.9244C249.116 69.1834 248.764 70.5082 248.439 71.8269C247.805 74.4106 247.23 77.0134 246.628 79.6036L246.419 80.1955C245.189 82.0996 244.762 84.2419 244.474 86.4439C244.328 87.5865 243.725 88.3389 242.654 88.9745C241.106 89.8989 239.663 91.0731 238.374 92.3412C237.15 93.5415 236.17 94.9911 235.09 96.3349C235.121 95.4175 235.071 94.4865 235.23 93.5977C235.786 90.5093 236.429 87.4335 237.025 84.3457C237.322 82.8048 237.644 81.2574 237.837 79.7009C237.934 78.8898 237.922 78.0005 237.691 77.2271C237.403 76.2715 236.823 75.3852 235.652 75.3135C234.537 75.2382 233.776 75.8487 233.238 76.7731C233.057 77.0896 232.898 77.4247 232.76 77.7628C231.387 81.1801 230.022 84.6 228.561 88.2491C228.074 86.019 227.166 84.3994 224.671 84.9732C223.797 83.5166 223.582 82.0038 223.285 80.5225C223.048 79.3478 222.489 78.3707 221.674 77.516C221.044 76.8549 220.245 76.8549 219.489 77.1338C218.718 77.4222 218.199 77.9764 218.199 78.9159C218.199 79.6959 218.078 80.4754 218.021 81.2584C217.927 82.558 217.771 83.8612 217.765 85.1608C217.762 86.5201 217.843 87.889 217.999 89.2418C218.233 91.2652 217 92.5935 215.945 94.2036C215.424 93.1382 214.902 92.2805 214.571 91.35C214.346 90.727 214.446 89.9977 214.303 89.3366C214.075 88.3154 213.731 87.3222 213.5 86.3014C213.238 85.1332 213.026 83.9525 212.826 82.7777C212.729 82.2079 212.757 81.6225 212.654 81.0583C212.155 78.3336 211.377 75.6591 211.367 72.8496C211.364 71.9723 211.24 71.0674 211.015 70.2187C210.759 69.2637 210.05 68.7591 209.326 68.9251C208.399 69.1413 207.468 69.4543 206.969 70.3466C206.463 71.255 205.992 72.1975 205.636 73.1746C205.261 74.2054 205.039 75.2919 204.759 76.3568C204.565 77.1022 204.15 77.5626 203.326 77.522C201.818 77.4533 201.059 78.4018 200.522 79.6202C200.145 80.4849 199.876 81.3993 199.439 82.2325C198.287 84.4465 197.996 86.6987 198.949 89.0572C199.273 89.8618 199.348 90.6824 199.046 91.5095C198.006 94.3561 197.506 97.4068 195.82 100.016C195.486 100.533 195.193 101.159 195.143 101.761C195.056 102.778 194.818 104.041 195.283 104.805C196.123 106.161 196.283 107.508 196.242 108.986C196.23 109.296 196.274 109.622 196.346 109.923C196.589 110.887 197.344 111.576 198.171 111.62C199.083 111.664 199.645 111.194 199.986 110.01C200.238 109.146 200.541 108.347 201.212 107.69C201.993 106.919 202.159 105.904 201.775 104.911C201.466 104.097 201.699 103.493 202.146 102.872C202.483 102.406 202.886 101.971 203.152 101.47C203.408 100.978 203.679 100.417 203.676 99.8877C203.66 98.1216 204.606 96.8626 205.624 95.4937C205.98 95.7661 206.193 96.0264 206.464 96.1232C207.71 96.5521 208.153 97.5889 208.5 98.7069C208.99 100.311 209.368 101.955 209.98 103.508C210.816 105.648 211.821 107.718 212.77 109.816L213.158 110.307C213.676 110.859 214.284 111.009 215.012 110.761C215.971 110.445 216.545 109.79 216.552 108.801C216.558 106.709 216.486 104.613 216.43 102.519C216.398 101.347 216.321 100.172 216.258 98.8193C217.36 99.4087 217.794 100.079 217.701 101.087C217.657 101.554 217.738 102.039 217.666 102.5C217.382 104.309 218.555 105.302 219.736 106.283C220.189 106.656 220.751 106.662 221.182 106.261C222.3 105.215 223.395 104.144 223.18 102.381C223.121 101.924 223.108 101.426 223.221 100.984C223.655 99.2893 223.496 97.6606 222.837 96.063C222.618 95.5368 222.522 95.0327 222.849 94.3907C223.611 95.0864 224.404 95.5775 224.869 96.2887C225.965 97.9425 226.933 99.6841 227.888 101.425C228.644 102.8 229.284 104.235 230.017 105.622C230.401 106.345 230.97 106.918 231.875 106.834C232.793 106.746 233.408 106.251 233.664 105.318C233.823 104.733 234.057 104.169 234.288 103.508L234.491 103.733L234.554 104.197C234.681 106.339 235.84 107.658 237.797 108.382C238.481 108.632 239.149 108.933 239.78 109.287C242.34 110.724 245.24 110.188 247.067 107.912C247.354 107.555 247.626 107.185 248.031 106.656C248.203 107.452 248.34 108.056 248.456 108.661C248.756 110.155 249.483 111.41 250.57 112.447C251.594 113.424 252.989 113.497 254.164 112.698C255.197 111.993 255.743 111.085 255.634 109.779C255.435 107.45 254.861 105.232 253.971 103.087ZM204.081 89.0617C204.989 86.6345 205.845 84.3608 206.697 82.0835L207.103 82.1868C207.103 83.3832 206.931 84.6111 207.15 85.7667C207.356 86.8311 207.984 87.8183 208.518 89.0612H204.081V89.0617ZM244.923 100.932C244.396 101.37 243.999 101.969 243.5 102.451C242.644 103.284 241.573 103.137 241.405 102.038C241.246 101.02 241.52 99.9203 241.689 98.871C241.854 97.8432 242.279 97.1073 243.409 96.6534C244.418 96.2401 245.214 95.3036 246.378 94.3887C246.641 96.9203 247.052 99.1559 244.923 100.932Z"/>
</mask>
<path d="M253.971 103.087C253.1 100.995 252.326 98.899 252.466 96.5596C252.563 94.9465 252.426 93.3213 252.485 91.7051C252.532 90.399 252.582 89.0708 252.872 87.8057C253.387 85.5631 254.065 83.3521 254.711 81.1405C255.014 80.1102 254.949 79.1331 254.28 78.3065C253.331 77.1257 253.228 75.804 253.55 74.4387C253.95 72.7598 254.487 71.1096 254.93 69.4398C255.089 68.8419 255.27 68.2124 255.239 67.6044C255.192 66.5681 254.783 65.6091 253.759 65.1867C252.666 64.7323 251.689 65.1551 250.94 65.9978C250.425 66.5776 249.888 67.2132 249.61 67.9244C249.116 69.1834 248.764 70.5082 248.439 71.8269C247.805 74.4106 247.23 77.0134 246.628 79.6036L246.419 80.1955C245.189 82.0996 244.762 84.2419 244.474 86.4439C244.328 87.5865 243.725 88.3389 242.654 88.9745C241.106 89.8989 239.663 91.0731 238.374 92.3412C237.15 93.5415 236.17 94.9911 235.09 96.3349C235.121 95.4175 235.071 94.4865 235.23 93.5977C235.786 90.5093 236.429 87.4335 237.025 84.3457C237.322 82.8048 237.644 81.2574 237.837 79.7009C237.934 78.8898 237.922 78.0005 237.691 77.2271C237.403 76.2715 236.823 75.3852 235.652 75.3135C234.537 75.2382 233.776 75.8487 233.238 76.7731C233.057 77.0896 232.898 77.4247 232.76 77.7628C231.387 81.1801 230.022 84.6 228.561 88.2491C228.074 86.019 227.166 84.3994 224.671 84.9732C223.797 83.5166 223.582 82.0038 223.285 80.5225C223.048 79.3478 222.489 78.3707 221.674 77.516C221.044 76.8549 220.245 76.8549 219.489 77.1338C218.718 77.4222 218.199 77.9764 218.199 78.9159C218.199 79.6959 218.078 80.4754 218.021 81.2584C217.927 82.558 217.771 83.8612 217.765 85.1608C217.762 86.5201 217.843 87.889 217.999 89.2418C218.233 91.2652 217 92.5935 215.945 94.2036C215.424 93.1382 214.902 92.2805 214.571 91.35C214.346 90.727 214.446 89.9977 214.303 89.3366C214.075 88.3154 213.731 87.3222 213.5 86.3014C213.238 85.1332 213.026 83.9525 212.826 82.7777C212.729 82.2079 212.757 81.6225 212.654 81.0583C212.155 78.3336 211.377 75.6591 211.367 72.8496C211.364 71.9723 211.24 71.0674 211.015 70.2187C210.759 69.2637 210.05 68.7591 209.326 68.9251C208.399 69.1413 207.468 69.4543 206.969 70.3466C206.463 71.255 205.992 72.1975 205.636 73.1746C205.261 74.2054 205.039 75.2919 204.759 76.3568C204.565 77.1022 204.15 77.5626 203.326 77.522C201.818 77.4533 201.059 78.4018 200.522 79.6202C200.145 80.4849 199.876 81.3993 199.439 82.2325C198.287 84.4465 197.996 86.6987 198.949 89.0572C199.273 89.8618 199.348 90.6824 199.046 91.5095C198.006 94.3561 197.506 97.4068 195.82 100.016C195.486 100.533 195.193 101.159 195.143 101.761C195.056 102.778 194.818 104.041 195.283 104.805C196.123 106.161 196.283 107.508 196.242 108.986C196.23 109.296 196.274 109.622 196.346 109.923C196.589 110.887 197.344 111.576 198.171 111.62C199.083 111.664 199.645 111.194 199.986 110.01C200.238 109.146 200.541 108.347 201.212 107.69C201.993 106.919 202.159 105.904 201.775 104.911C201.466 104.097 201.699 103.493 202.146 102.872C202.483 102.406 202.886 101.971 203.152 101.47C203.408 100.978 203.679 100.417 203.676 99.8877C203.66 98.1216 204.606 96.8626 205.624 95.4937C205.98 95.7661 206.193 96.0264 206.464 96.1232C207.71 96.5521 208.153 97.5889 208.5 98.7069C208.99 100.311 209.368 101.955 209.98 103.508C210.816 105.648 211.821 107.718 212.77 109.816L213.158 110.307C213.676 110.859 214.284 111.009 215.012 110.761C215.971 110.445 216.545 109.79 216.552 108.801C216.558 106.709 216.486 104.613 216.43 102.519C216.398 101.347 216.321 100.172 216.258 98.8193C217.36 99.4087 217.794 100.079 217.701 101.087C217.657 101.554 217.738 102.039 217.666 102.5C217.382 104.309 218.555 105.302 219.736 106.283C220.189 106.656 220.751 106.662 221.182 106.261C222.3 105.215 223.395 104.144 223.18 102.381C223.121 101.924 223.108 101.426 223.221 100.984C223.655 99.2893 223.496 97.6606 222.837 96.063C222.618 95.5368 222.522 95.0327 222.849 94.3907C223.611 95.0864 224.404 95.5775 224.869 96.2887C225.965 97.9425 226.933 99.6841 227.888 101.425C228.644 102.8 229.284 104.235 230.017 105.622C230.401 106.345 230.97 106.918 231.875 106.834C232.793 106.746 233.408 106.251 233.664 105.318C233.823 104.733 234.057 104.169 234.288 103.508L234.491 103.733L234.554 104.197C234.681 106.339 235.84 107.658 237.797 108.382C238.481 108.632 239.149 108.933 239.78 109.287C242.34 110.724 245.24 110.188 247.067 107.912C247.354 107.555 247.626 107.185 248.031 106.656C248.203 107.452 248.34 108.056 248.456 108.661C248.756 110.155 249.483 111.41 250.57 112.447C251.594 113.424 252.989 113.497 254.164 112.698C255.197 111.993 255.743 111.085 255.634 109.779C255.435 107.45 254.861 105.232 253.971 103.087ZM204.081 89.0617C204.989 86.6345 205.845 84.3608 206.697 82.0835L207.103 82.1868C207.103 83.3832 206.931 84.6111 207.15 85.7667C207.356 86.8311 207.984 87.8183 208.518 89.0612H204.081V89.0617ZM244.923 100.932C244.396 101.37 243.999 101.969 243.5 102.451C242.644 103.284 241.573 103.137 241.405 102.038C241.246 101.02 241.52 99.9203 241.689 98.871C241.854 97.8432 242.279 97.1073 243.409 96.6534C244.418 96.2401 245.214 95.3036 246.378 94.3887C246.641 96.9203 247.052 99.1559 244.923 100.932Z" fill="#1ABED6" stroke="black" stroke-width="2" mask="url(#path-11-inside-3_107_31)"/>
<mask id="path-12-inside-4_107_31" fill="white">
<path d="M443.708 141.735V142.036H442.844V144.298H442.494V142.036H441.629V141.735"/>
</mask>
<path d="M443.708 141.735V142.036H442.844V144.298H442.494V142.036H441.629V141.735" fill="#1ABED6"/>
<path d="M443.708 142.036V143.036H444.708V142.036H443.708ZM442.844 142.036V141.036H441.844V142.036H442.844ZM442.844 144.298V145.298H443.844V144.298H442.844ZM442.494 144.298H441.494V145.298H442.494V144.298ZM442.494 142.036H443.494V141.036H442.494V142.036ZM441.629 142.036H440.629V143.036H441.629V142.036ZM442.708 141.735V142.036H444.708V141.735H442.708ZM443.708 141.036H442.844V143.036H443.708V141.036ZM441.844 142.036V144.298H443.844V142.036H441.844ZM442.844 143.298H442.494V145.298H442.844V143.298ZM443.494 144.298V142.036H441.494V144.298H443.494ZM442.494 141.036H441.629V143.036H442.494V141.036ZM442.629 142.036V141.735H440.629V142.036H442.629Z" fill="black" mask="url(#path-12-inside-4_107_31)"/>
<mask id="path-14-inside-5_107_31" fill="white">
<path d="M443.946 141.735H444.439L445.179 143.9L445.913 141.735H446.403V144.298H446.078V142.798L446.081 142.522V142.136L445.348 144.298H445.007L444.255 142.136V142.212L444.273 142.5V144.298H443.946"/>
</mask>
<path d="M443.946 141.735H444.439L445.179 143.9L445.913 141.735H446.403V144.298H446.078V142.798L446.081 142.522V142.136L445.348 144.298H445.007L444.255 142.136V142.212L444.273 142.5V144.298H443.946" fill="#1ABED6"/>
<path d="M444.439 141.735L445.385 141.411L445.154 140.735H444.439V141.735ZM445.179 143.9L444.233 144.223L445.183 147.003L446.126 144.221L445.179 143.9ZM445.913 141.735V140.735H445.196L444.966 141.414L445.913 141.735ZM446.403 141.735H447.403V140.735H446.403V141.735ZM446.403 144.298V145.298H447.403V144.298H446.403ZM446.078 144.298H445.078V145.298H446.078V144.298ZM446.078 142.798L445.078 142.787V142.798H446.078ZM446.081 142.522L447.081 142.533V142.522H446.081ZM446.081 142.136H447.081L445.135 141.815L446.081 142.136ZM445.348 144.298V145.298H446.065L446.295 144.619L445.348 144.298ZM445.007 144.298L444.063 144.626L444.296 145.298H445.007V144.298ZM444.255 142.136L445.199 141.808L443.255 142.136H444.255ZM444.255 142.212H443.255V142.244L443.257 142.276L444.255 142.212ZM444.273 142.5H445.273V142.468L445.271 142.436L444.273 142.5ZM444.273 144.298V145.298H445.273V144.298H444.273ZM443.946 142.735H444.439V140.735H443.946V142.735ZM443.493 142.058L444.233 144.223L446.125 143.576L445.385 141.411L443.493 142.058ZM446.126 144.221L446.86 142.056L444.966 141.414L444.232 143.579L446.126 144.221ZM445.913 142.735H446.403V140.735H445.913V142.735ZM445.403 141.735V144.298H447.403V141.735H445.403ZM446.403 143.298H446.078V145.298H446.403V143.298ZM447.078 144.298V142.798H445.078V144.298H447.078ZM447.078 142.809L447.081 142.533L445.082 142.511L445.079 142.787L447.078 142.809ZM447.081 142.522V142.136H445.081V142.522H447.081ZM445.135 141.815L444.401 143.976L446.295 144.619L447.028 142.458L445.135 141.815ZM445.348 143.298H445.007V145.298H445.348V143.298ZM445.951 143.969L445.199 141.808L443.311 142.465L444.063 144.626L445.951 143.969ZM443.255 142.136V142.212H445.255V142.136H443.255ZM443.257 142.276L443.276 142.564L445.271 142.436L445.253 142.148L443.257 142.276ZM443.273 142.5V144.298H445.273V142.5H443.273ZM444.273 143.298H443.946V145.298H444.273V143.298Z" fill="black" mask="url(#path-14-inside-5_107_31)"/>
</g>
<defs>
<filter id="filter0_d_107_31" x="0" y="0" width="520" height="167" filterUnits="userSpaceOnUse" color-interpolation-filters="sRGB">
<feFlood flood-opacity="0" result="BackgroundImageFix"/>
<feColorMatrix in="SourceAlpha" type="matrix" values="0 0 0 0 0 0 0 0 0 0 0 0 0 0 0 0 0 0 127 0" result="hardAlpha"/>
<feOffset/>
<feGaussianBlur stdDeviation="5"/>
<feColorMatrix type="matrix" values="0 0 0 0 0.490196 0 0 0 0 1 0 0 0 0 0.478431 0 0 0 1 0"/>
<feBlend mode="normal" in2="BackgroundImageFix" result="effect1_dropShadow_107_31"/>
<feBlend mode="normal" in="SourceGraphic" in2="effect1_dropShadow_107_31" result="shape"/>
</filter>
<clipPath id="clip0_107_31">
<rect width="500" height="147" fill="white" transform="translate(10 10)"/>
</clipPath>
</defs>
</svg>
